<?xml version="1.0" encoding="UTF-8"?>
<!DOCTYPE svg PUBLIC "-//W3C//DTD SVG 1.1//EN" "http://www.w3.org/Graphics/SVG/1.1/DTD/svg11.dtd">
<!-- Creator: CorelDRAW X6 -->
<svg xmlns="http://www.w3.org/2000/svg" xml:space="preserve" width="1500px" height="1500px" version="1.1" style="shape-rendering:geometricPrecision; text-rendering:geometricPrecision; image-rendering:optimizeQuality; fill-rule:evenodd; clip-rule:evenodd"
viewBox="0 0 239 239"
 xmlns:xlink="http://www.w3.org/1999/xlink">
 <defs>
  <style type="text/css">
   <![CDATA[
    .str0 {stroke:black;stroke-width:0.694043}
    .fil0 {fill:none}
   ]]>
  </style>
 </defs>
 <g id="图层_x0020_1">
  <metadata id="CorelCorpID_0Corel-Layer"/>
  <rect class="fil0 str0" x="62" y="62" width="116" height="116"/>
  <line class="fil0 str0" x1="62" y1="62" x2="177" y2= "177" />
  <line class="fil0 str0" x1="177" y1="62" x2="62" y2= "177" />
  <line class="fil0 str0" x1="119" y1="62" x2="119" y2= "177" />
  <line class="fil0 str0" x1="62" y1="119" x2="177" y2= "119" />
  <line class="fil0 str0" x1="62" y1="119" x2="119" y2= "62" />
  <line class="fil0 str0" x1="177" y1="119" x2="119" y2= "62" />
  <line class="fil0 str0" x1="62" y1="119" x2="119" y2= "177" />
  <line class="fil0 str0" x1="119" y1="177" x2="177" y2= "119" />
  <line class="fil0 str0" x1="62" y1="91" x2="177" y2= "91" />
  <line class="fil0 str0" x1="62" y1="148" x2="177" y2= "148" />
  <line class="fil0 str0" x1="91" y1="62" x2="91" y2= "177" />
  <line class="fil0 str0" x1="148" y1="62" x2="148" y2= "177" />
  <circle class="fil0 str0" cx="91" cy="148" r="29"/>
  <circle class="fil0 str0" cx="148" cy="91" r="29"/>
  <circle class="fil0 str0" cx="119" cy="119" r="29"/>
  <line class="fil0 str0" x1="91" y1="119" x2="119" y2= "91" />
  <line class="fil0 str0" x1="119" y1="91" x2="148" y2= "119" />
  <line class="fil0 str0" x1="91" y1="119" x2="119" y2= "148" />
  <line class="fil0 str0" x1="148" y1="119" x2="119" y2= "148" />
  <circle class="fil0 str0" cx="119" cy="119" r="20"/>
  <path class="fil0 str0" d="M116 239c-16,-16 -25,-37 -25,-61 0,-48 39,-87 87,-87 24,0 46,10 61,25"/>
  <path class="fil0 str0" d="M123 0c16,16 25,37 25,61 0,48 -39,87 -87,87 -24,0 -46,-10 -61,-25"/>
  <line class="fil0 str0" x1="108" y1="125" x2="123" y2= "125" />
  <line class="fil0 str0" x1="131" y1="114" x2="116" y2= "114" />
  <line class="fil0 str0" x1="113" y1="88" x2="126" y2= "152" />
 </g>
</svg>
