<?xml version="1.0" encoding="UTF-8" standalone="no"?>
<!-- Created with Inkscape (http://www.inkscape.org/) -->

<svg
   xmlns:dc="http://purl.org/dc/elements/1.1/"
   xmlns:cc="http://creativecommons.org/ns#"
   xmlns:rdf="http://www.w3.org/1999/02/22-rdf-syntax-ns#"
   xmlns:svg="http://www.w3.org/2000/svg"
   xmlns="http://www.w3.org/2000/svg"
   xmlns:sodipodi="http://sodipodi.sourceforge.net/DTD/sodipodi-0.dtd"
   xmlns:inkscape="http://www.inkscape.org/namespaces/inkscape"
   width="169.33333mm"
   height="112.88889mm"
   viewBox="0 0 599.99998 399.99999"
   id="svg2"
   version="1.1"
   inkscape:version="0.91 r13725"
   sodipodi:docname="index.svg">
  <defs
     id="defs4" />
  <sodipodi:namedview
     id="base"
     pagecolor="#ffffff"
     bordercolor="#666666"
     borderopacity="1.0"
     inkscape:pageopacity="0.0"
     inkscape:pageshadow="2"
     inkscape:zoom="0.98994949"
     inkscape:cx="189.73927"
     inkscape:cy="197.2803"
     inkscape:document-units="px"
     inkscape:current-layer="layer1"
     showgrid="false"
     fit-margin-top="0"
     fit-margin-left="0"
     fit-margin-right="0"
     fit-margin-bottom="0"
     inkscape:window-width="1846"
     inkscape:window-height="1181"
     inkscape:window-x="66"
     inkscape:window-y="-8"
     inkscape:window-maximized="1" />
  <metadata
     id="metadata7">
    <rdf:RDF>
      <cc:Work
         rdf:about="">
        <dc:format>image/svg+xml</dc:format>
        <dc:type
           rdf:resource="http://purl.org/dc/dcmitype/StillImage" />
        <dc:title></dc:title>
      </cc:Work>
    </rdf:RDF>
  </metadata>
  <g
     inkscape:label="Layer 1"
     inkscape:groupmode="layer"
     id="layer1"
     transform="translate(-72.04726,-326.18111)">
    <rect
       y="326.9444"
       x="72.810547"
       height="198.47342"
       width="198.47342"
       id="rect3365"
       style="fill:#f2f2f2;fill-opacity:1;stroke:#ffffff;stroke-width:1.5265733;stroke-opacity:1"
       inkscape:tile-cx="-153.57899"
       inkscape:tile-cy="670.55006"
       inkscape:tile-w="199.99999"
       inkscape:tile-h="199.99999"
       inkscape:tile-x0="-253.57899"
       inkscape:tile-y0="570.55007" />
    <rect
       inkscape:tile-y0="570.55007"
       inkscape:tile-x0="-253.57899"
       style="fill:#f2f2f2;fill-opacity:1;stroke:#ffffff;stroke-width:1.5265733;stroke-opacity:1"
       id="use3371"
       width="198.47342"
       height="198.47342"
       x="72.810547"
       y="526.9444" />
    <rect
       inkscape:tile-y0="570.55007"
       inkscape:tile-x0="-253.57899"
       style="fill:#f2f2f2;fill-opacity:1;stroke:#ffffff;stroke-width:1.5265733;stroke-opacity:1"
       id="use3373"
       width="198.47342"
       height="198.47342"
       x="272.81055"
       y="326.9444" />
    <rect
       inkscape:tile-y0="570.55007"
       inkscape:tile-x0="-253.57899"
       style="fill:#f2f2f2;fill-opacity:1;stroke:#ffffff;stroke-width:1.5265733;stroke-opacity:1"
       id="use3375"
       width="198.47342"
       height="198.47342"
       x="272.81055"
       y="526.9444" />
    <rect
       inkscape:tile-y0="570.55007"
       inkscape:tile-x0="-253.57899"
       style="fill:#f2f2f2;fill-opacity:1;stroke:#ffffff;stroke-width:1.5265733;stroke-opacity:1"
       id="use3377"
       width="198.47342"
       height="198.47342"
       x="472.81052"
       y="326.9444" />
    <rect
       inkscape:tile-y0="570.55007"
       inkscape:tile-x0="-253.57899"
       style="fill:#f2f2f2;fill-opacity:1;stroke:#ffffff;stroke-width:1.5265733;stroke-opacity:1"
       id="use3379"
       width="198.47342"
       height="198.47342"
       x="472.81052"
       y="526.9444" />
    <text
       xml:space="preserve"
       style="font-style:normal;font-weight:normal;font-size:40px;line-height:125%;font-family:sans-serif;letter-spacing:0px;word-spacing:0px;fill:#000000;fill-opacity:1;stroke:none;stroke-width:1px;stroke-linecap:butt;stroke-linejoin:miter;stroke-opacity:1"
       x="-158.26752"
       y="163.52614"
       id="text3429"
       sodipodi:linespacing="125%"><tspan
         sodipodi:role="line"
         id="tspan3431"
         x="-158.26752"
         y="163.52614"
         style="font-style:normal;font-variant:normal;font-weight:normal;font-stretch:normal;font-family:'書體坊顏體㊣';-inkscape-font-specification:'書體坊顏體㊣'" /></text>
    <g
       id="g3441"
       transform="matrix(0.45713924,0,0,0.45713924,97.899272,353.5074)"
       style="fill:#1a1a1a">
      <path
         id="path3443"
         d="m 164.15,187.85 6.3,-1.35 13.9,-5.45 1.45,0.45 0.2,0 0.1,0.05 3.4,1.05 0.95,0.2 0.2,0 1.4,0.3 0.3,0 0.35,0.05 0.05,1.5 -0.1,1.4 -0.4,1.3 -0.3,0.6 -0.2,0.15 0,0.15 -0.1,0.35 -0.95,1.1 -1.1,1 -4.9,2.85 -2.8,2.25 -1.75,2.35 -0.6,1.25 -0.35,1.2 -0.05,1.35 -1,0.3 -0.8,0.5 -0.55,0.65 -0.5,1.3 -0.05,0.5 0.05,1.2 0.4,2.05 0.3,0.85 0.55,0.35 0.6,0.7 1.2,2.3 2.9,8.15 -0.75,0.25 -0.65,0.4 -0.55,0.45 -0.8,1.3 -0.35,1.7 0,1.1 0.2,1.85 -0.05,0 0,0.9 -0.1,0.4 -0.05,0.5 -0.85,1.4 -0.35,0.3 -0.3,0.35 -0.65,0.6 -0.6,0.2 -0.5,0 -0.15,0.05 -1.4,-0.05 -1.7,-0.5 -1.9,-0.75 -1.05,0 -1.9,0.2 -1.55,0.5 -1.25,0.8 -0.5,0.55 -2.05,-0.45 -5.25,-0.55 -1.95,-0.75 -0.85,-0.55 -0.65,-0.6 -0.65,-0.75 -0.85,-1.65 -0.3,-0.95 -6.95,-7.9 -4.1,-5.9 -3.65,-7.9 -1.6,-5.8 -0.4,-3.9 -3.6,-7.3 -0.25,-0.95 -0.05,-0.95 0.15,-0.75 0.3,-0.8 0.6,-0.65 0.8,-0.65 1,-0.45 1.45,0 2.8,0.35 2.35,0.85 1,0.5 1.8,1.45 14.65,2.05 5.9,-0.5"
         inkscape:connector-curvature="0"
         style="fill:#1a1a1a;stroke:none" />
      <path
         id="path3445"
         d="m 253.85,172.7 0.5,0 2.1,-0.3 4.6,-0.1 10.5,0.9 18.9,4.25 11,3.6 15.2,8.3 2.8,2.5 1.05,1.45 0.75,1.5 0.6,1.55 0.35,1.65 0.15,1.85 2.05,6.3 0,7.35 -6.65,4.1 -2.15,2.15 -0.6,1.05 -18.8,0 -9.9,-6.75 -12,-10.2 -5.5,-5.6 -12.2,-15.65 -4.3,-6.75 0,-0.8 0.25,-1.15 0.45,-0.85 0.85,-0.35"
         inkscape:connector-curvature="0"
         style="fill:#1a1a1a;stroke:none" />
      <path
         id="path3447"
         d="m 109.95,234.7 0.15,0.35 0.05,0.4 11.5,10.2 12.7,8.6 16.6,8.3 12.5,5.25 25.05,8.4 12.45,1.7 13.1,1.8 0.3,0 6.8,0.9 0.4,0 5.4,0.65 0.4,0 0.35,0.1 0.45,0 0.15,0.05 3.1,1.05 19.85,-2.05 0.55,-9.7 -0.35,-7.9 -0.5,-3.35 -0.7,-2.85 -0.95,-2.45 -1.2,-2.05 -1.05,-5.15 0.05,-1.6 0.5,-2.6 0.5,-1.05 0.7,0.3 0.7,0.45 0.6,0.55 0.6,0.75 0.5,0.8 1.1,3.4 0.7,2.7 0.5,1.05 0.65,0.95 0.6,0.65 0.85,0.55 0.9,0.3 1.05,0.1 8,8.15 7.65,5.9 3.5,2.05 0.85,0.35 0.2,0.05 2.45,1.1 3.35,0.85 0.55,0 0.25,0.05 2.45,0.25 11.8,2.45 1.2,0.5 0.45,0.3 0.45,0.35 0.7,0.9 0.15,0.4 0.3,1.05 0.05,0.65 -0.1,1.3 -0.35,1.55 0.65,0.45 0.45,0.65 0.3,0.65 0.15,0.8 -0.15,0.75 -0.3,0.95 -1.1,2 -0.05,0.1 0,1.25 -0.2,1.45 -0.7,2.7 -1.2,2.65 -1.5,2.55 -1.6,1.75 -0.2,0.1 -0.35,0.55 -2.45,2.35 -4.7,3.3 -0.7,0.35 -0.15,0.2 -0.85,0.6 -17.05,4.9 -2.25,0.4 -4.8,1.05 -1.45,0.2 -0.4,0.1 -5.05,0.75 -0.45,0.15 -3.7,0.45 -0.55,0 -14.85,1.2 -7.95,0.15 -10.5,-0.3 -2.9,-0.25 -0.55,-0.15 -0.7,-0.3 -19.9,-4.2 -12.55,-2.1 -33.45,-13.55 -2.9,-1.6 -1.8,-0.5 -0.5,0 -1.95,-0.65 -1.45,-0.7 -1.15,-0.9 -0.4,-0.45 -0.3,-0.45 -9.4,-5.2 -3.05,-2.8 -2.65,-1.75 -1.6,-0.7 -25.05,-23 -5.25,-9.4 -6.25,-9.4 -5.25,-10.5 -2.1,-12.5 -5.25,-11.5 0.05,-1.6 0.4,-1.45 0.55,-1.45 1.8,-2.6 2.75,-2.35 1.8,-1 9.4,6.25 6.25,8.4 0.75,2 0.75,1.45 0.6,0.75 1.1,2 0.2,0.55 0.05,0.5 0,0.4 -0.1,0.35 -0.2,0.35 11.75,15.85 0.45,1 0.15,0.15 0,0.05"
         inkscape:connector-curvature="0"
         style="fill:#1a1a1a;stroke:none" />
      <path
         id="path3449"
         d="m 18.3,213.7 0.9,0.8 1.3,1.8 3.95,11.8 1.15,1.85 0.95,2.4 1.25,6.7 0.3,8.95 -1.6,38.65 -5.2,7.3 -0.35,0.3 -0.3,0.35 -0.5,0.35 -0.15,0.2 -0.2,0.05 -0.2,0.1 -0.35,0.2 -0.85,0.2 -2.05,-0.05 -1.45,-0.4 -0.15,-0.05 -0.15,0 -0.6,-0.2 -1.35,-1.05 -0.5,-0.6 -0.3,-0.45 -0.2,-0.6 -0.05,-0.45 0.05,-0.55 0.2,-0.45 -1.55,-1.7 -3.9,-5.1 -3,-5.65 -2.6,-8.3 -0.8,-6.75 0.15,-7.25 1.1,-7.75 2,-8.25 4.15,-11.8 7.6,-15.9 1.7,0.5 1.6,0.8"
         inkscape:connector-curvature="0"
         style="fill:#1a1a1a;stroke:none" />
      <path
         id="path3451"
         d="m 109.1,135.05 0,-31.35 -4.2,0 -9.35,2.1 -10.5,3.15 -0.3,1 -0.35,2.35 -0.1,1.3 0.5,9 0.25,1.75 2.1,9.65 10.45,2.15 11.5,-1.1 m 93.05,-97.2 1,-16.7 -26.15,0 -26.05,3.1 1,4.2 2.35,1.35 1,0.8 1.85,1.75 2.05,3.15 0.8,2.2 0.5,2.6 0,4.3 -3.3,22.5 11.5,-3.15 20.9,8.4 -2.9,6.5 -1.25,1.9 -0.6,0.55 -0.5,0.45 -0.45,1.65 -0.15,0.35 -0.15,0.4 -0.15,0.35 -0.1,0.4 -0.65,0.9 -0.2,0.35 -0.3,0.25 -0.25,0.3 -0.3,0.2 -0.2,0.3 -1,0.55 -0.3,0.25 -0.4,0.1 -0.4,0.2 -0.4,0.1 -0.35,0.2 -0.45,0.05 -0.45,0.1 -0.45,0.05 -0.4,0.15 -15.45,1.15 -0.85,0.2 -1.6,0.7 -1.55,1.3 -2.1,3 -2.1,4.05 -2.75,7.4 -0.6,2.2 -0.05,0 0,0.4 -0.15,0.45 -0.15,0.1 -0.15,0.35 -0.3,0.45 -1,0.7 -0.35,0.15 -0.2,0 0,0.05 -0.1,0.1 -0.65,0.35 -0.55,0.6 -0.3,0.95 -0.2,2.65 1.3,0.8 0.7,0.8 0.8,1.45 0.5,2.4 -1.25,11.25 0.55,0.65 0.7,0.5 0.75,0.3 0.9,0.15 0.85,-0.15 1.15,-0.3 2.4,-1.15 0.95,-0.7 1.35,-0.65 0.5,-0.05 0.85,0.05 0.75,0.2 0.7,0.5 0.65,0.7 0.6,1 2.8,-0.3 4.5,-0.75 0.5,1.25 0.3,0.35 0.45,0.2 0.4,0 0.45,-0.05 1,-0.7 0.75,-0.75 1.4,-0.95 0.7,-0.2 0.6,-0.05 0.3,0 0.35,0.15 0.5,0.25 0.6,0.5 0.5,0.1 0.55,0.4 1.1,1.6 9.55,-25.3 2.4,-9.45 0.65,-5.8 -0.1,-5.45 3.2,-11.45 7.3,-39.75 m 50.75,-9.55 1,1.95 0.7,2.05 0.55,3.4 -0.2,3.65 -0.75,3.95 -7.15,20.65 -6.25,23.05 -6.25,10.45 -4.2,11.5 -0.05,4.75 -1,5.1 -2.1,5.35 -12.55,24.5 -4.2,6.3 -6.25,4.15 -16.7,12.55 -2.1,0.7 -1.5,0.75 -0.55,0.6 -1.55,0.7 -1.35,0.1 -0.65,-0.25 -0.6,-0.35 -0.6,-0.55 -0.55,-0.65 -1.05,-17.75 -26.3,-0.75 -4.7,0.2 -9.75,1.55 0,-1 -17,3.2 -16.6,4.8 -3,1.4 -13.65,4.45 -2.95,1.3 -2.4,1.3 -2,1.3 -1.4,1.35 -0.55,0.7 -6.3,0 -2.6,-1.45 -3.4,-2.9 -2,-2.25 -1.85,-2.6 -3.7,-7.95 -1.1,-3.7 -4.15,-24.1 0,-13.55 -2.1,-14.65 1.1,-1.05 -2.15,-17.75 0,-27.2 -1.6,-2.9 -0.45,-1.8 -0.05,-1.55 -0.5,-2.65 -0.7,-1.45 -0.4,-0.65 -0.5,-0.45 0.55,-3.7 -0.2,-1.45 -0.35,-1.15 0,-7.35 5.25,-10.4 0.7,-0.55 0.8,-0.4 2.25,-0.85 1.45,-0.15 1.4,0.1 0.75,0.2 1.4,0.55 0.65,0.35 2.1,1.8 10.45,7.3 9.45,14.65 0,24 -0.3,1.1 -0.6,4.1 0,0.95 0.35,3.75 0.25,0.65 0.55,1.05 0.75,0.95 0.75,0.65 0.9,0.55 0.9,0.35 1.05,0.25 2.25,-0.05 2.55,-0.65 7.3,-1.1 10.45,-4.15 2.65,-1.4 0.95,-0.85 0.8,-0.95 0.5,-1.15 0.05,-0.35 0.3,-0.85 0.05,-1.25 0.05,-0.1 -0.05,-0.25 -0.05,-1.25 0.75,-1.95 0.3,-1.25 0,-0.5 0.05,-0.15 0.15,-0.65 0,-1.15 0.05,-0.35 -0.15,-3.55 -0.1,-1 -0.3,-6.55 0.55,-2.85 0.15,-0.65 0.9,-1.5 0.75,-0.85 -2.1,-9.45 -13.35,1.8 L 96,36.4 92.35,35.75 81.9,29.5 73.6,22.2 75.75,20.6 81.1,18 l 8.25,-2.6 37.5,-6.85 48.1,-1 27.2,0 4.35,-3.95 0.9,-0.55 3.4,-1.8 2.45,-0.8 0.8,-0.15 1.65,-0.05 1.3,-0.25 2.75,0.15 2.85,0.75 1.5,0.65 3.1,1.85 10.45,5.15 7.8,11.9 3.9,4.5 1.45,1.4 1.5,1.05 0.6,0.9"
         inkscape:connector-curvature="0"
         style="fill:#1a1a1a;stroke:none" />
    </g>
    <g
       id="g3453"
       transform="matrix(0.45713924,0,0,0.45713924,300.20782,355.88452)"
       style="fill:#1a1a1a">
      <path
         id="path3455"
         d="m 231.1,96.65 2.45,-0.95 0.4,-0.25 0.35,-0.1 0.5,-0.25 12.8,-2.65 2.3,-0.85 3.5,-1.8 1.25,-0.95 0.95,-0.05 0,-0.05 0.9,0 1.1,-0.2 0.45,0 0.55,-0.15 0.35,-0.2 0.2,0 1.45,-0.7 1.25,-0.25 1.05,0 0.8,0.25 0.35,0.3 0.75,-0.3 1.85,-0.25 2.1,0 2.35,0.25 1.3,0.3 1.5,-0.05 0.1,-0.1 2.5,-0.1 0.25,-0.05 0.85,0 0.5,-0.15 1.35,-0.15 1,-0.35 0.35,-0.05 7.3,2.05 7.35,4.2 0.9,-0.3 1.95,-0.25 1.85,0.05 1.7,0.35 1.6,0.65 0.75,0.5 1.4,1.1 1.8,2.15 0.6,0.95 2.4,0.1 1.3,0.25 1,0.35 0.5,0.3 0.6,0.5 0.2,0.35 0.2,0.45 0.1,0.85 -0.05,1 0.05,1.55 -0.25,1.55 -0.5,1.5 -0.9,1.65 -1.25,1.55 -0.4,0.35 -1.1,1.25 -4.05,3.2 -39.7,0 -0.45,-0.3 -0.55,-0.2 -0.65,-0.1 -1.5,0 -1.85,0.25 -7.75,2.4 -5,2.1 4.2,12.55 3.1,11.5 0,50.2 1.05,21.95 0.2,0.05 0.3,0.3 0.35,0.45 1.3,2.7 1,2.75 -4.2,6.25 -2.1,7.3 0.7,3.85 0.05,3.2 -0.2,1.3 -0.3,0.85 -0.05,0.4 -0.3,0.45 -0.25,0.55 -0.65,0.9 -0.55,0.1 -0.3,0.15 -0.15,0.3 -0.05,0.55 -0.9,4.55 0,0.35 -2.55,11.5 -0.1,0.1 -1.85,4.8 -0.1,0.05 -0.2,0.35 -0.7,1.2 -0.95,1.1 -3.15,6.55 -1.55,1.9 -1.55,1 -7.3,8.35 -4.2,8.35 -0.5,0.3 -0.85,0.85 -0.55,1.3 -0.2,1.7 0,1.1 -0.2,1.4 -0.35,1.2 -0.7,0.85 -0.85,0.7 -0.55,0.2 -0.55,0 -0.1,0.05 -1.45,-0.05 -1.7,-0.45 -2.95,-1.2 -1.05,-0.1 -1.05,0.1 -1,0.4 -10.5,-7.3 -1.05,-13.55 -7.3,-12.6 0.15,-0.8 -0.1,-0.7 -0.2,-0.75 -0.45,-0.65 -0.65,-0.65 -0.75,-0.55 -2.2,-1.15 -3.1,0 -17.75,-15.65 2.85,-1.35 1.85,-0.5 1.7,-0.25 0.9,0 6.25,2.1 0.55,0 3.15,0.75 3.6,1.35 2.25,-0.7 0.4,-0.25 0.5,-0.2 0.75,-0.45 0.55,-0.6 0.4,-0.6 0.25,-0.7 0.1,-0.7 0.55,0.9 0.7,0.8 1.65,1.15 0.9,0.3 1.1,0.15 2.45,-0.15 2,0.1 5.35,0.95 7.95,-12.05 1.15,-2.6 0.45,-2.6 -0.15,-2.6 2.05,-1.05 -0.3,-1.05 -0.25,-1.9 0,-1.55 0.25,-1.3 0.3,-0.45 0.75,-2 0.3,-1.7 -0.3,-1.45 -0.35,-0.65 -0.4,-0.5 1.1,-1.9 0.85,-1.9 0.45,-1.95 0.2,-1.85 -0.05,-1.1 -0.6,-2.9 -1.35,-3.1 -0.6,-0.95 3.2,-2.1 -1.1,-17.8 -0.75,-5 -0.05,-4.4 0.15,-2.1 0.95,-3.65 0.8,-1.6 -1.15,-2.15 -0.5,-1.65 -0.65,-3.8 0,-6.8 0.35,-6.65 -0.5,-4.55 -1.1,-3.85 -2.5,-4.25 -0.95,-2.2 -0.15,-0.9 -0.05,-0.9 0.1,-0.75 0.3,-0.7 0.45,-0.55 -3.85,-2.2 -1.75,-0.75 -2.8,-0.8 -0.65,-0.1 -1.6,0.25 -0.5,0.2 -0.35,0.3 -10.45,0 -2.95,1.3 -0.75,0.45 -2.05,1 -0.5,0.35 -0.85,0 -1.75,0.25 -1.8,0.5 -1.95,0.85 -0.95,0.55 -11.05,2.2 -3.65,1 -0.65,0.25 -0.5,0.15 -0.45,0.2 -0.3,0.15 -0.15,0.2 -15.65,-3.15 0.15,-0.85 0,-0.8 -0.45,-1.55 -0.5,-0.85 -1.45,-1.5 -0.85,-0.7 3.1,-10.45 12.5,-1.1 0.75,0.15 0.5,0 0.25,0.05 0.3,-0.1 0.35,-0.1 0.7,-0.25 0.6,-0.55 0.1,-0.2 0.2,-0.1 0.35,-0.3 1.15,-1.7 0.75,-0.55 1.4,-0.65 1.3,-0.3 1.15,0.15 0.6,0.3 7.35,-1 1.2,-0.55 2.3,-0.45 2.15,0 0.95,0.15 0.85,0.3 0.9,0.55 0.3,-0.85 0.6,-0.75 0.7,-0.7 1,-0.65 2.5,-1.25 3.3,-1.05 13.55,-1.1 2.8,-1.35 1.55,-0.45 1.4,-0.25 0.55,0 2.55,-0.3 3.7,-0.75 8.85,-2.65"
         inkscape:connector-curvature="0"
         style="fill:#1a1a1a;stroke:none" />
      <path
         id="path3457"
         d="m 271.05,39.7 -0.05,1.05 -0.65,1.1 -7.3,5.15 -9.45,3.15 -16.7,4.2 -0.35,0 -2.7,0.4 -29.35,5.9 -2.1,-1.05 -5.5,1.2 -2.2,0.1 -0.95,-0.1 -0.75,-0.15 -31.4,0 -10.4,1 -0.8,-0.6 -0.65,-0.65 -0.95,-1.4 -0.4,-0.85 -0.35,-1.8 0,-0.95 0.05,-0.35 0.15,-0.3 0.05,-0.35 0.1,-0.3 0.2,-1.6 -0.1,-0.1 0,-0.9 -0.2,-1.65 -0.05,-0.1 0,-0.45 -0.2,-1.2 6.25,-2.1 6.3,-3.15 1.55,0.25 1.55,-0.05 1.5,-0.45 1.65,-0.75 0.75,-0.55 1.4,-0.85 0.7,-0.2 0.6,-0.3 1.15,-0.25 0.6,0 11.5,2.15 11.5,-1.1 7.35,-4.15 10.45,-1.1 0.45,-0.3 2.05,-0.65 0.65,-0.05 0.1,0 0.35,0.2 0.45,0.05 0.4,0 0.5,-0.05 0.35,-0.2 0.35,-0.3 0.65,-0.75 2.6,-0.3 0.45,-0.15 0.2,-0.15 0.25,-0.05 0.35,-0.25 0.35,-0.15 0.7,-0.55 1.25,-0.65 1.05,-0.25 0.75,0.15 0.35,0.3 0.7,-0.1 0.4,-0.1 0,-0.05 0.4,0 1.4,-0.6 0.6,-0.45 0.1,-0.2 0.55,-0.35 0.35,-0.55 0.15,-0.1 1.3,-1.45 1.45,-1.2 1.3,-0.85 1.25,-0.35 0.55,0 20.9,2.15 0.05,0.4 0.2,0.4 0.3,0.35 0.45,0.4 1.3,0.35 3.05,0.15 1.95,0.35 0.8,0.45 0.5,0.4 0.45,0.5 0.2,0.65 0.15,0.8 -0.5,0.7 -0.4,1.05 0.05,1.05 0.2,0.6 0.4,0.65 0.55,0.6 1.4,1.05 0.5,0.55 0.4,0.45 0.2,0.6"
         inkscape:connector-curvature="0"
         style="fill:#1a1a1a;stroke:none" />
      <path
         id="path3459"
         d="m 112.9,0.55 1.8,1.2 5.85,5.95 11.8,15.3 1.85,1 2.25,1.8 1,1.15 0.4,0.7 0.25,0.6 0.25,1.4 0.1,0.75 -0.3,1.45 -0.55,1.6 3.15,4.2 0.4,0.7 0.3,0.7 0.3,1.2 -0.15,0.45 -0.1,0.2 -0.05,0.2 -0.3,0.35 -0.4,0.4 -8.4,9.35 -0.35,0.7 -0.35,0.55 -0.05,0.25 -1.05,1.4 -1.5,1.35 -1.3,0.9 -0.4,0.35 -2.2,1.1 -1.9,0.7 -0.55,0.3 -6.05,1.85 -0.05,-0.2 -0.15,-0.1 -0.6,-0.25 -0.5,-0.1 -1.15,-0.2 -0.65,0 -0.9,-0.1 -8.5,-0.1 -16.75,10.45 -1.65,-0.9 -1.55,-0.5 -1.5,-0.05 -0.85,0.05 -0.7,0.3 -0.4,1.2 -0.2,0.25 -0.35,0.8 -0.25,0.2 -0.5,0.7 -0.95,0.75 -2.5,1 -1.5,0.25 -0.85,0 -0.05,0.05 -0.85,0.05 -14.6,15.7 -0.3,0.4 -0.65,2.1 -0.05,0.65 -4.55,-1 L 52.2,92 51.9,92 51.05,92.15 50.4,92.2 49.75,92.15 49.25,92 48.7,91.55 l -0.4,-0.4 -0.35,-0.6 -0.25,-0.65 0,-16.75 4.2,-7.3 0.3,-1.3 0.85,-2.25 1.3,-1.75 1.7,-1.5 1.1,-0.55 1.15,-2.1 0.35,-0.55 1.1,-3 1.1,-1.7 0.45,-0.4 1,-0.6 0.9,-3.15 3,-5.7 4.5,-5.2 7.55,-5.85 1.85,-1 0.5,-1.45 0.8,-1.2 0.85,-0.95 1,-0.6 0.85,-2.1 1.3,-1.5 6.2,-3.7 1.9,-1.4 2.45,-1.35 1.35,-0.35 0.6,0 6.25,-8.4 1.6,-2.35 0.8,-1 1.85,-1.6 2,-1 1.05,-0.3 0.65,0.15 0.8,0.4"
         inkscape:connector-curvature="0"
         style="fill:#1a1a1a;stroke:none" />
      <path
         id="path3461"
         d="m 43.55,163.95 0,-0.3 -0.05,-0.6 11.5,-9.4 9.45,-10.45 12.5,-16.7 0.1,-0.05 0.2,0 0.35,-0.1 0.65,-0.2 1,-1 0.1,-0.45 0.2,-0.35 0.2,-0.7 0.1,-0.15 0,-0.3 0.15,-0.8 0.1,-1.15 0.5,-0.8 1.2,-1.15 1.3,-0.85 1.4,-0.35 0.85,0 23,-28.2 12.5,9.4 0.4,-0.2 1.35,-0.1 0.75,0.05 0.25,0.05 0.4,0.2 0.4,0.3 0.15,0.15 0.2,0.3 0.15,0.6 0.15,0.75 -0.25,0.7 -0.05,0.8 0.05,0.65 0.25,0.7 0.45,0.9 0.55,0.55 2.9,2.4 1.3,1.35 0.4,0.6 0.05,0.1 0.1,0.2 0.2,0.35 0.3,1.15 3.2,3.15 1.5,2.05 0.5,1.55 0.05,0.55 -0.55,0.55 -0.3,0.85 -0.15,1 0,2.6 0.15,1.65 0.85,3.8 0.05,0.75 -0.05,1.25 -0.1,0.65 -0.5,0.95 -0.7,0.85 -1.1,0.45 -0.4,0.05 -0.25,0.15 -0.75,0.15 -1.65,0.15 -1.85,-0.15 -7.5,5.2 -5.6,5.2 -3.05,3.9 -2,3.9 -0.7,2.7 2.15,0.75 1.8,1 1.5,1.15 1.1,1.25 0.65,1.35 0.4,1.55 0.1,0.75 -0.4,2.65 -1.45,3.9 -1.65,5.95 -0.25,1.4 0,0.65 -0.05,0.5 0.1,0.8 0.2,0.35 -0.55,0.95 -0.8,1.95 -0.5,1.85 -0.3,3.75 -0.1,0.55 -0.05,0.6 -0.2,0.45 -0.1,0.55 -0.1,0.15 -0.2,0.7 -0.45,0.65 -0.2,0.15 -0.35,0.5 -0.35,0.2 -0.3,0.25 -0.7,0.4 -0.55,1.05 -0.65,2.6 -0.2,3.15 0.45,6.65 0,0.8 0.05,0.2 0,1.9 -0.4,3.2 -0.2,0.15 0,0.1 -0.1,0.35 -0.55,1.25 -0.15,0.2 0,0.1 -0.1,0.35 -0.85,0.9 0,0.1 -0.9,0.95 -1.5,17.1 -0.45,14.1 0.6,5.5 0.3,0.95 -0.55,1.1 -0.25,1.5 -0.2,6.25 1,8.9 0,0.9 0.05,0.35 -0.1,3.6 -0.4,2.2 -0.2,0.45 -0.4,1.6 -0.95,1.8 -0.1,0.1 -0.45,0.8 -0.55,0.9 -0.75,0.75 -0.4,0.35 -0.35,0.45 -1.65,1.45 -7.3,-4.2 -1.1,-0.45 -0.9,-0.25 -0.95,-0.05 -1.55,0.55 -1.3,1.3 -0.55,1 0,1.05 -9,-9.85 -0.5,-0.65 -0.65,-1.05 -0.15,-0.4 -0.1,-0.35 0,-0.2 -3.15,-9.45 -6.25,-9.4 0,-5.25 1.45,-5.1 0.6,-1.15 6.25,-9.45 4.2,-10.4 4.2,-26.15 3.1,-11.5 -0.25,-2.9 -0.3,-1.25 -0.45,-1.05 -0.5,-0.85 -1.05,-2.05 -0.45,-1.25 -0.1,-1.1 -0.6,-0.25 -0.3,-0.05 -0.25,0.05 -0.35,0 -0.3,0.1 -1.25,0.8 -1.1,1 -2.25,3.2 -0.35,0.25 -0.15,0.15 -0.15,0.15 -0.55,0.55 -0.7,0.3 -0.4,0.05 -0.25,0.1 -0.25,-0.05 -0.55,0 -0.7,-0.1 -0.35,0.35 -0.05,0.2 -1.05,1.7 -1.7,2.1 -3.95,3.75 -4.9,3.05 -5.75,2.45 -8.4,9.4 -1.05,-0.25 -0.9,0.1 -0.8,0.2 -1.3,1.1 -0.5,0.8 -0.4,1 -0.3,1.25 -1.75,0.7 -3.05,1.75 -7.8,6.3 -8.25,8 -2.1,0 -3.55,0.35 -2.85,0.85 -1.2,0.5 -1,0.65 L 6.9,230 5.9,228.6 5.1,227.85 4.7,227.6 4.35,227.55 4.05,227.6 3.8,227.85 0.65,230 0.2,229.15 0,228.3 l 0,-0.8 0.85,-1.55 1.7,-1.6 1.25,-0.7 3.9,-3.9 1,-1.8 0.25,-0.85 0.1,-0.75 8.3,-11.45 13.65,-24.05 7.3,-8.4 2.65,-2.2 1.35,-1.75 0,-0.1 0.45,-0.45 0.8,-2.4 0.05,-1.25 -0.05,-0.35"
         inkscape:connector-curvature="0"
         style="fill:#1a1a1a;stroke:none" />
    </g>
    <g
       id="g3463"
       transform="matrix(0.45713924,0,0,0.45713924,497.54496,354.14739)"
       style="fill:#1a1a1a">
      <path
         id="path3465"
         d="m 154.95,213.5 0.85,-0.9 0.85,-0.55 1.4,0.5 0.6,0.3 1.05,0.85 0.4,0.45 0.7,1 4.2,4.2 0.4,1.9 0,0.15 0.35,1.55 0.2,1.4 0,0.3 0.1,0.95 0.45,0.95 0.25,0.9 0.25,1.1 0,0.2 0.05,0.2 -0.1,0.6 -0.2,0.35 0,0.2 -0.1,0.05 -0.15,0.35 -0.45,0.35 0.25,6.25 -0.65,11.35 -0.95,5.05 -0.65,2.3 -0.25,0.55 -0.5,1.75 -1.85,4.2 -0.85,1.4 -0.25,0.55 -1.15,1.8 -1.2,1.75 -1.1,1.2 -0.25,0.5 -1.7,0.15 -0.8,-0.15 -0.7,-0.3 -0.85,-0.55 -1.5,-1.4 -0.75,-0.9 -1.15,-1.95 -1.25,-1.45 -1.35,-1.15 -1.5,-0.7 -0.4,-6.35 0.3,-13.6 0.65,-4.6 0.95,-4.05 1.3,-3.55 1.55,-3.05 0.9,-1.35 2.25,-6.75 1.55,-3.1 0.8,-1.2"
         inkscape:connector-curvature="0"
         style="fill:#1a1a1a;stroke:none" />
      <path
         id="path3467"
         d="m 306.6,201 4.5,1.9 5.05,3.05 4.6,3.95 5.2,12.55 -5.2,11.55 -0.6,0.05 -1.55,0.3 -2.15,0.1 -1.1,-0.05 -1.65,-0.25 -0.2,-0.05 -0.35,0 -1.05,-0.2 -3.5,-1.1 -4.55,-2.3 -16.75,-11.15 -4.4,-2 -3.75,-2.75 -1.65,-1.7 -2.15,-2.9 -1.2,-2.1 -0.45,-1.1 3.5,-4.7 2.15,-2.1 1.35,-1.05 0.5,-0.25 0.85,-0.3 3.1,-0.3 5.9,0 8.2,0.9 7.35,2"
         inkscape:connector-curvature="0"
         style="fill:#1a1a1a;stroke:none" />
      <path
         id="path3469"
         d="m 283.1,252.8 1.25,8.4 0.3,1.1 1,2.05 0.65,0.9 0.9,0.95 2.1,1.7 1.25,0.7 4.5,2 7.9,2 5.15,1.1 2.7,1.05 2.2,1.4 0.9,0.9 0.65,0.8 0.6,1.05 0.4,1 0.3,1.15 0.1,2.45 -0.45,2.75 -0.65,1.2 -0.4,0.4 0,0.1 -0.35,0.6 -0.95,0.95 -0.1,0 -0.95,0.9 -0.35,0.1 -0.15,0 -0.15,0.15 -2,1.05 -1.6,0.4 -0.5,0.05 -1.2,0.35 -9.45,4.2 -0.7,-0.2 -0.7,-0.05 -3.55,0.25 -1.1,0.15 -4.7,1.25 -7,2.8 -19.45,-0.1 -12.45,-1.4 -7.3,-1.55 -10.95,-4 -5.15,-3 -3.25,-2.55 -2.1,-0.65 -3.9,-1.8 -1.85,-1.2 -3.55,-3 -10.85,-12.45 -4.7,-4.15 -1.3,-0.8 0.05,-0.5 0,-0.4 0.05,0 0.05,-0.8 -0.15,-0.75 0,-0.15 -0.3,-0.85 -0.1,-0.15 -1,-1.8 -0.45,-0.5 -1.3,-1.4 -11.5,-27.15 -1.15,-6.25 -0.25,-3.2 0.1,-2.3 0.3,-0.85 0.5,-2.1 0.3,-0.55 0.65,-0.95 1.25,-0.85 1.1,-0.25 2,0.1 0.7,0.15 2.4,1 0.85,0.45 4.9,4.1 2.05,3.1 -0.25,0.95 0.15,1.05 0.3,1.1 1.3,2.1 2.2,2.15 1.55,1.05 1.35,0.75 1.65,1.3 0.45,0.45 0.7,1.1 0.35,1.05 0.15,1.2 -0.1,1.15 -0.35,1.35 0.7,0.25 0.75,0.4 1.4,1.15 1.2,1.45 1.15,1.95 0.6,1.8 0.4,0.7 0.5,0.65 0.55,0.4 0.65,0.35 0.65,0.2 0.85,0.1 13.55,12.55 11.35,6.35 12.15,4.35 12.9,2.4 13.8,0.5 2.05,-2.15 -1.05,-13.55 2.15,-11.5 4.15,6.3"
         inkscape:connector-curvature="0"
         style="fill:#1a1a1a;stroke:none" />
      <path
         id="path3471"
         d="m 254.1,205.05 -1.05,1.2 -0.8,0.45 -0.2,0.1 -0.55,0.35 -1.85,0.7 -0.75,0.45 -1.2,1 -0.8,1.1 -0.2,0.55 -0.15,1.1 -0.95,0.2 -1.5,0.85 -1.15,1.25 -0.9,1.55 -0.5,1.95 -0.2,2.3 0.6,5.8 0.6,2.9 0,0.4 0.05,0.1 0.25,1.45 0,0.5 0.05,0.25 -0.05,0.25 0,0.3 -0.15,0.45 -0.1,0.15 -0.05,0.1 -0.15,0.05 -0.05,0 0,0.05 -8.9,3.65 -1.8,0.45 -1.5,0.2 -2.45,-0.1 -2.75,-1.9 -4.45,-3.8 -3.15,-3.9 -1.55,-3.1 -0.3,-1 -0.35,-2 -2.95,-10.95 -0.8,-5.5 -0.1,-1.2 0.25,-2.8 0.2,-0.85 0.3,-0.65 0.35,-0.3 0.65,-0.2 0.9,-0.2 8.5,-0.35 2.6,1.85 0.5,0.25 2.1,1.9 1.05,0.7 1.55,0.5 0.6,0.05 24,0 -0.75,1.4"
         inkscape:connector-curvature="0"
         style="fill:#1a1a1a;stroke:none" />
      <path
         id="path3473"
         d="m 184.3,117.35 -0.85,-1.2 -0.45,-1.3 -0.25,-1.4 0,-0.7 -4.2,0 2.15,20.85 2.05,0 2.1,-15.7 -0.55,-0.55 m 25.45,-11.4 -0.4,0.1 -0.4,0 0,0.05 -0.35,0.15 -1.8,0.15 -0.8,0.25 -0.6,0.35 -0.45,0.4 -0.3,0.55 -0.15,0.55 -0.1,0.65 0.1,0.65 0.4,1.3 0.2,1.1 0.65,18.3 1.05,0.35 1.05,0.1 1.05,-0.1 1.05,-0.35 4.2,-2.15 1,-24 -3.1,0 -0.4,0.4 -0.2,0.2 -0.2,0.25 -1.1,0.7 -0.4,0 0,0.05 m 26.4,-2.7 -0.3,2.4 -1.65,6 -7.55,16.7 17.75,-1 0,-5.25 4.2,-10.45 2.15,-11.5 -1.1,-1.05 -13.55,2.15 0.05,2 m 30.7,-60.1 1.65,0 1.5,0.25 2.15,0.9 1.3,0.95 1.25,1.15 1.1,1.5 3.15,9.45 -1.1,2.05 -52.25,5.25 -19.85,21.95 0,2.05 17.25,-0.5 28.75,-3.7 0.45,-0.8 0.65,-0.7 1.4,-1.25 1.75,-1.1 0.95,-0.5 2.05,-0.75 2.35,-0.6 7.15,-0.55 7.2,4.75 6.05,5.4 0.45,0.6 0.05,0.1 0.35,0.55 0.5,1.2 3.4,5 1.45,3.6 0.35,1.25 0,0.35 0.05,0.15 0.15,0.6 0.1,2.25 -0.25,2.25 -0.15,0.35 0,0.15 -0.1,0.6 -0.4,1.1 -0.2,0.5 -0.2,0.6 -10.15,19.4 -1.3,1.9 -0.4,0.75 -8.65,11.45 -8.75,10.45 -8.4,3.15 -8.35,1 -3.15,-11.45 -9.05,-0.7 -16.55,2 -37.1,11.2 -5.9,3.75 -0.75,0.45 -0.65,0.45 -0.65,0.3 -0.55,0.35 q -0.25,0.1 -0.55,0.25 l -0.4,0.3 -0.4,0.1 -0.25,0.2 -0.25,0.05 -0.1,0.05 -0.05,-0.6 -0.1,-0.3 -0.1,-0.2 -0.55,-1.25 -0.5,-0.7 -1.8,-2.15 -1.45,-1.05 -1.35,-1.65 -0.15,-0.5 -0.2,-1 -4.2,-39.7 -2.65,-2.1 -3,-3.2 -1.3,-2.1 -0.75,-2.05 -0.25,-2.1 0.25,-2.15 0.75,-2.1 0.65,-0.95 1.6,-0.95 8.25,-3.95 3.85,-1.3 1.4,-0.25 1.2,0 0.45,0.2 0,0.05 0.1,0.15 0.4,0.2 0.65,0.2 0.9,0.15 0.55,0 2.05,0.2 4.6,0.15 0.35,0.1 0.9,0 0.35,0.05 0.25,-0.05 0.9,0 1.15,-0.2 2.15,-0.8 1.65,-1.15 0.3,-0.1 0.8,-0.9 0.05,-0.15 0.85,-0.85 0.35,-0.6 0.05,-0.15 0.35,-0.35 0.8,-1.2 2.5,-6.25 1,-9.4 -14.6,4.2 -11.1,-4.95 -5.8,-3.45 -4.4,-3.45 -1.65,-1.8 0.05,-1.55 0.75,-2.75 1.55,-2.35 2.35,-1.95 1.55,-0.75 33.45,-1.05 0.65,-0.35 0.3,-0.25 0.35,-0.2 0.25,-0.3 0.25,-0.2 0.5,-0.6 0.1,-0.4 0.2,-0.35 0.1,-0.45 0.2,-0.35 0.05,-0.45 0.1,-0.45 0.05,-0.9 -0.3,-0.85 -0.2,-2.05 0.1,-1.25 0.1,-0.6 0.3,-0.45 0.2,-0.5 0.25,-0.4 0.15,-0.45 0.25,-0.45 0.7,-2 0.05,-0.6 0.15,-0.5 0.35,-3.75 -0.1,-0.2 -0.1,-2.75 -0.1,-0.8 L 196,29 l 0,-0.5 -0.15,-0.85 -0.05,-0.25 0,-0.5 -1.1,-5.15 0,-0.15 -1.6,-6.5 0,-4 0.15,-1.25 0.85,-2.35 1.15,-2.2 1.8,-1.95 2.1,-1.7 1.35,-0.8 1.15,-0.3 4.3,-0.55 4.65,0.2 3.15,0.95 1.4,0.8 0.7,0.85 1.6,1.6 0.85,0.65 0.7,0.4 0.8,0.35 1.65,0.3 5.55,7.85 1.95,3.95 1.35,4.1 0.75,4.05 0.15,4.15 -0.4,4.1 -1,4.2 -1,7.35 -0.2,0.4 -0.05,0.45 0.05,0.9 0.2,0.7 0.15,0.3 0.3,0.35 0.6,0.4 0.8,0.35 2.25,0.3 11.1,-1.2 1.95,-0.4 4.8,-1.55 13.55,-3.15 0.85,-0.3 1.7,-0.25"
         inkscape:connector-curvature="0"
         style="fill:#1a1a1a;stroke:none" />
      <path
         id="path3475"
         d="m 70.9,181.7 -3.35,1.6 -25.9,20.35 1.05,0 18.8,-5.25 11.5,-2.05 0.85,-0.3 1.65,-0.3 1.5,0 1.35,0.25 1.15,0.5 1,0.85 0.5,0.5 0.75,1.2 0.65,1.45 -0.05,0.6 -0.05,0.15 0,0.5 -0.3,1.2 -0.2,0.25 -0.35,0.85 -0.35,0.55 -0.3,0.6 -0.85,0.85 0,0.15 -1.1,0.95 -0.35,0.15 -0.3,0.25 -2.05,1.35 -10.45,5.2 -0.15,0.6 -0.1,1.1 0.15,0.6 0.3,0.95 0.2,0.4 0.4,0.45 0.7,0.65 1,0.65 2.7,0.85 3.25,0.7 1.3,0.5 2.1,1.3 0.8,0.8 0.5,0.9 0.45,1.05 0.05,0.45 0,0.55 -0.15,1.1 -1,2.3 -2.05,2.45 -4.65,3.85 -2.25,2.55 -1.3,2.6 -0.3,1.3 -0.1,1.3 0.2,1.45 3.4,-1.6 3.95,-2.6 0.7,-0.75 1.6,-1.2 1.5,-0.85 0.85,-0.15 1.65,-0.2 0.3,-1.05 0.45,-0.95 0.65,-0.95 1.85,-1.5 2.55,-1.3 3.15,-1.15 1.5,-0.65 2.05,-1.4 0.6,-0.85 0.25,-0.45 0.05,-0.25 0.1,-0.15 0.15,-0.95 0,-0.5 -0.1,-0.45 -2.1,-53.35 -4.15,0 -17.8,9.45 m -14.7,-19.95 0,0.2 0.55,1.95 0.35,0.75 0.25,0.3 11.5,-1 11.5,-4.2 2.35,-0.55 4.3,-0.5 0.65,0 5.2,-3.15 0,-15.7 -1,-15.65 -0.75,0.2 -0.5,0.35 -0.3,0.45 -0.05,0.5 0.05,0.55 0.3,0.65 0.5,0.65 0.75,0.8 -0.75,1.3 -1.15,1.3 -1.55,1.3 -1.8,1.3 -5,2.6 -6.5,2.7 -11.5,3.15 -10.45,4.2 2.25,12.2 0.8,3.35 m 1.65,-58.8 -0.45,1.95 -0.05,10.95 13.55,0 11.5,-1.05 1.85,2.05 1.3,2.15 7.3,0 0,-24.1 -6.95,-0.1 -7,0.9 -16.85,3.7 -2.35,1.2 -1.25,1.3 -0.6,1.05 M 81.1,48.7 l -2.25,0 -0.85,0.2 -0.9,0.3 -0.75,0.45 -0.75,0.6 -0.5,0.75 -17.75,1.1 -1.3,0.5 -0.95,0.65 -0.7,0.8 -0.85,1.75 0,1.1 0.2,1.15 3.6,9.7 1.5,2.1 0.5,1.5 0.3,2.15 0.8,2.65 3.35,-0.3 3.95,-0.75 14.25,1.7 0.5,0.1 5,0.6 0.25,0 2.6,0.35 0.5,0.15 0.35,0 0.95,0.15 0.6,0 0.1,0.05 0,-14.6 -1,-13.6 -10.75,-1.3 m 79.35,-13.55 0,0.4 0.05,0.5 0,0.8 -0.2,0.7 -0.35,0.7 -0.2,0.15 -0.35,0.5 -0.65,0.6 -2.1,1.35 -0.55,0.5 -0.55,0.35 -0.75,0.65 -0.25,0.35 -2.75,0.85 -0.65,0.4 -1.15,0.85 -0.4,0.5 -0.3,0.55 -10.45,0 -10.45,1 -0.75,0.8 -0.6,1 -0.45,1.15 -0.55,2.6 0,3.1 0.25,1.85 0,11.5 -0.05,0.1 0,0.55 -0.05,0.1 0,0.55 -0.2,1 -0.1,0.1 -0.05,0 0,0.2 -0.15,0.3 -0.2,0.15 -0.2,0 0,0.05 0.05,0.9 0.2,0.9 0.3,0.7 0.15,0.3 0.3,0.35 0,11.5 -2.05,7.3 1.05,12.5 -1.05,12.6 0,23 2.05,22.95 0,14.65 -2.05,8.35 0,8.4 1.8,13.1 0.3,20.45 1,39.6 -7.3,30.3 0.15,2.05 -0.45,2.1 -1.1,2.1 -1.75,2.15 -7.3,6.25 -2.95,0.65 -2.55,0.05 -1.15,-0.25 -1,-0.35 -1,-0.5 -0.8,-0.65 -1.4,-2 -3.2,-5.7 -1.4,-3.7 -1,-5.3 0.05,-3.45 0.7,-3.3 1.25,-3.25 0.9,-1.5 0.65,-2 0.55,-4.25 0,-0.7 0.1,-0.2 0.1,-0.9 0.05,-3.55 0.05,-0.45 -0.05,-2.35 -0.05,-0.35 0,-0.3 -1.4,-20.55 0.65,-4.35 0.05,-3.5 -0.25,-1.5 -0.35,-1.25 -0.55,-1.05 -0.65,-0.85 -9.4,6.25 -1.1,0.05 -0.9,0.3 -0.9,0.5 -1.55,1.5 -1.3,2.4 -0.5,1.5 -0.65,1.2 -0.65,0.95 -0.8,0.7 -0.8,0.5 -1,0.25 -1.1,0.15 -0.55,-0.15 -0.15,-0.05 -0.4,0 -0.35,-0.1 -0.1,-0.1 -0.2,0 -0.6,-0.15 -1.95,2.95 -4.05,4.95 -10.05,9.6 -17.4,13.85 -0.95,1.2 -0.3,0.5 -1.4,1.7 -0.7,0.55 -0.2,0.2 -2.75,2.3 -0.6,0.3 -0.5,0.35 -3.55,2 -2.8,1.25 -2.95,1.15 -0.1,-0.1 -0.4,0 -0.3,-0.1 -0.25,-0.05 -1.4,-0.65 L 16.4,293 1.95,282.05 0.65,280.1 0.2,279.3 0.05,278.65 0,278 l 0.1,-0.5 0.3,-0.4 0.45,-0.3 0.6,-1 0.4,-0.45 1.75,-1.15 1.45,-0.5 1.4,-0.2 1.2,-0.35 0.9,-0.7 0.7,-0.9 9.45,-3.1 9.35,-4.2 0.7,0.15 0.55,0 0.25,0.1 0.1,-0.1 0.55,0 0.7,-0.15 0.9,-0.65 0.35,-0.2 1.15,-1.2 0.95,-1.5 2.15,-2.1 1.05,-0.6 0.7,-0.65 0.2,-0.35 0.1,-0.05 0.35,-0.4 0.55,-0.9 0.45,-1.1 0.2,-1 0.1,-0.3 0.2,-1.05 0.1,-0.3 0.15,-1.6 0.1,-1.7 -0.55,0 -0.45,0.05 -3.1,-0.2 -2.35,-0.6 -5.25,-2.15 -1.45,-0.75 -7.8,-4.7 0.6,-0.85 1.95,-1.65 6.65,-3.05 4.5,-1.6 1.8,-0.95 0.35,-0.3 1.2,-0.7 1.25,-1.15 0.85,-1.2 0.55,-1.35 0.25,-1.45 -0.1,-1.45 -10.55,-4.15 -2.55,-1.35 -2.15,-1.55 -1.65,-1.45 -1.2,-1.55 -0.7,-1.45 8.65,-4.4 0.95,-0.35 3.45,-1.45 0.3,-0.05 0.2,0 2.15,-2.1 -4.2,0 -0.8,0.2 -0.75,0.05 -1.35,-0.05 -0.65,-0.2 -0.55,-0.3 -1.15,-0.75 -0.8,0.2 -0.75,0.05 -0.7,-0.05 -0.65,-0.2 -1.25,-0.85 -1.05,-1.25 -0.65,-1.9 -0.7,-1.5 -0.9,-1.1 -0.85,-0.7 -0.3,-1.65 0,-6.45 1.45,-6.45 2.95,-6.65 3.2,-4.95 5.6,-62.15 0,-11.2 -1.45,-16.55 0.4,-1.1 0,-0.1 0.15,-0.15 0.5,-1.45 0.25,-1.45 0,-1.5 -0.25,-1.65 -0.5,-1.65 -2.35,-5.3 -0.95,-3.45 -0.2,-3.15 0.4,-2.85 0.45,-1.3 -12.55,-8.35 -1.2,-0.5 -0.9,-0.6 -0.45,-0.45 -0.45,-1 -0.3,-1.3 0,-1.6 0.25,-1.85 1,-3.15 0.5,-0.6 1.6,-0.95 3.6,-1.4 4.85,-1.2 16.65,-2.1 15.6,2.05 11.5,0 37.65,-6.25 20.9,0 0.75,-0.55 1.95,-0.65 2.35,-0.3 2.8,0.15 21.4,4.45 4.2,4.2 0.7,1.9"
         inkscape:connector-curvature="0"
         style="fill:#1a1a1a;stroke:none" />
      <path
         id="path3477"
         d="m 166.3,191.45 -2.7,0.2 -2.55,-0.05 -2.4,-0.45 -2.25,-0.75 -2.05,-1.1 -1.9,-1.35 -0.95,-0.1 -0.65,-0.2 -0.25,-0.15 -0.1,-0.2 -0.15,-0.25 0,-0.15 -0.35,-0.3 -0.3,-0.2 -0.7,-0.25 -0.85,-0.2 -0.9,-0.05 -1,-1.05 -1.5,-2.05 -0.75,-1.8 -0.1,-0.85 0,-0.8 0.2,-0.75 0.35,-0.4 0.95,-0.55 0.5,-0.2 2.3,-1.05 5.3,-2 62.7,-6.25 15.7,-3.2 15.65,-4.15 10.5,3.15 1.35,1 1.15,1.2 0.8,1.15 0.6,1.3 0.1,0.6 0.05,2.1 -0.35,1.5 -0.6,1.6 -3.1,3.1 -35.1,2.55 -27.4,5 -2.35,0.85 -0.7,-0.2 -0.75,-0.05 -3.95,0.25 -6.75,1.4 -8.75,2.8 -6,1.35"
         inkscape:connector-curvature="0"
         style="fill:#1a1a1a;stroke:none" />
    </g>
    <g
       id="g3479"
       transform="matrix(0.45713924,0,0,0.45713924,96.025001,557.78165)"
       style="fill:#1a1a1a">
      <path
         id="path3481"
         d="m 196.5,21.2 0.5,0 0.4,0.05 0.7,0.15 0.35,0.3 0.1,0.25 0.1,0.3 -1.4,0.9 -2.2,2.35 -1.8,2.8 -1.45,3.35 -1.1,3.75 -0.6,4.25 -0.15,9.95 0.3,2.9 -0.4,3.25 -0.55,1.7 -1.55,3.7 -3.75,6.05 -1,0.4 -0.35,0.05 -0.95,0.4 -0.75,0.1 -0.85,0.25 -1.9,0.35 -0.85,0 -0.25,0.05 -9.5,0.4 -0.35,0.05 -4.2,-9.35 -6.8,-30.5 -1,-8 -0.05,-3.05 0.25,-2.5 0.3,-0.9 0.75,-1 0.9,-0.8 0.85,-0.6 2.15,-0.5 1.2,0.05 1.15,0.25 8.7,2.6 7.3,6.25 7.3,3.1 10.45,-3.1"
         inkscape:connector-curvature="0"
         style="fill:#1a1a1a;stroke:none" />
      <path
         id="path3483"
         d="m 46.55,118.35 2.45,-0.8 2.8,-0.55 6.3,-0.25 5.65,0.6 23,-3.15 13.6,3.15 3.8,0.85 1.65,0.65 2.2,1.25 1.25,1.1 1.1,1.25 1.5,2.2 L 92,132 l -0.85,-0.2 -5.1,0.2 -3.85,0.7 -11.15,3.45 -3.35,0.65 -8.9,0.9 -5.2,-0.4 -2.35,-0.5 -2.1,-0.65 -4.45,-6.4 -2.7,-5.5 -0.35,-1.3 0,-1.05 0.15,-0.35 0.8,-0.85 1.8,-1.3 2.15,-1.05"
         inkscape:connector-curvature="0"
         style="fill:#1a1a1a;stroke:none" />
      <path
         id="path3485"
         d="m 35.65,161 0.95,-0.8 0.75,0.15 0.15,0 0.1,0.05 0.35,0.15 1.2,0.15 0.5,-0.05 0.4,-0.1 0.7,-0.35 1.35,-1.35 0.5,-0.25 0.35,-0.25 0.65,-0.25 0.35,0 5.7,0.65 14.65,-0.5 8.9,-1.2 4.25,-1 9.6,-1.35 6.5,-0.05 2.9,0.35 2.65,0.6 1.25,0.4 11.5,2.1 1.35,0.8 1,0.95 0.35,0.45 0.3,0.55 0.35,1.15 -0.05,1.2 -0.4,1.35 -1.85,2.95 -0.95,0.95 -0.1,0 -0.9,0.9 -2.25,1.3 -0.3,0.2 -3.15,1.15 -1.9,0.4 -14.5,2.4 -11.35,0.1 -9.1,1.35 -11.55,3.1 -4.6,1.8 -15.55,-2.55 -1.8,-0.55 -1.55,-0.75 -1.2,-0.95 -0.6,-0.6 -0.95,-1.25 -0.7,-1.4 -0.25,-0.75 -0.35,-1.7 0.05,-0.9 0.15,-0.55 0.45,-1.05 0.7,-1.1 0.5,-0.6 0.4,-0.7 1.1,-1.5 3,-3.25"
         inkscape:connector-curvature="0"
         style="fill:#1a1a1a;stroke:none" />
      <path
         id="path3487"
         d="m 80.4,218.05 0.05,-0.2 0.05,-2.25 -17.8,4.2 -0.9,1.15 -0.85,0.95 -0.95,0.7 -0.95,0.55 -1.15,0.2 -0.55,0.1 -0.3,0 -0.25,0.05 -1.2,-0.25 -0.35,-0.1 -0.1,-0.05 -0.2,0 -0.55,-0.2 -1.1,15.7 0.15,3.2 0.8,3.7 0.65,1.6 0.4,0.75 0.9,1.3 0.5,0.55 1.15,1 0.7,0.45 1.95,-0.5 5.4,-0.55 7.3,-1.05 2.4,-5.75 2,-5.9 0.4,-1.6 0.15,-0.45 1.3,-6.3 0.95,-11 m 40.65,-1.5 0.7,4 0.55,13.85 -2.3,6.25 -0.85,1.65 -0.05,0.3 -0.2,0.2 -1.85,3.4 -3.6,4.8 -1.25,1.25 -0.1,0.2 -2.9,2.65 -6.75,4.4 -16.75,4.15 -16.7,6.35 -1.35,1.85 -0.45,0.45 -0.45,0.45 -0.95,0.85 -2.35,1.4 -12.2,5.45 -1.05,2.55 -1.05,1.6 -5.85,-5.6 -2.4,-1.35 -0.7,-0.15 -1.5,-0.2 -0.6,-0.35 -0.5,-0.4 -0.9,-1.2 -0.95,-1.6 -1.2,-3.25 -1.35,-5.65 -2.9,-22.05 -3.1,-17.75 0.15,-0.6 0.25,-0.55 0.1,-0.6 0,-0.15 0.2,-0.35 0.05,-2.5 -0.6,-2.75 -0.15,-0.35 0,-0.1 -0.15,-0.35 -0.95,-2.15 -0.45,-1.6 -0.25,-1.45 -0.05,-1.35 0.55,-2.35 0.55,-1 0.8,-0.95 1,-0.75 1.35,-1.55 0.7,-0.65 2.55,-1.5 0.9,-0.45 1.9,-0.65 4.45,-0.65 2.5,0.05 18.05,2.25 10.85,-0.45 0.5,-0.1 1.8,-0.2 0.5,-0.1 1.75,-0.2 1.7,-0.4 0.3,0 1.95,-0.35 3.35,-1.05 2.75,-1.25 0.35,-0.35 0.2,-0.1 0.6,-0.35 0.35,-0.35 0.15,-0.05 0.55,-0.35 2.3,-2.4 0.35,-0.3 1.05,-0.5 0.75,-0.05 0.55,0.05 0.65,0.3 0.6,0.5 0.6,0.75 10.45,3.15 8.35,7.3 6.7,10.15 0.4,1.25"
         inkscape:connector-curvature="0"
         style="fill:#1a1a1a;stroke:none" />
      <path
         id="path3489"
         d="m 266.55,14.95 6.25,8.3 0,11.5 -31.35,34.5 0.15,0.95 0,0.9 -0.25,0.75 -0.35,0.55 -0.05,0.25 -0.65,0.55 -0.8,0.45 -0.05,0.1 -0.15,0 -0.85,0.4 -1.15,0.35 -0.5,-0.15 -1.25,-0.15 -0.85,0.1 -1.85,0.45 -1.45,0.7 -5.15,4.5 -2.55,1.9 13.6,1 12.55,-4.2 2.6,-1.4 2.55,-0.9 2.35,-0.45 0.75,-0.1 1.5,0.1 1.4,0.2 0.65,0.2 0.7,0.3 15.7,27.2 -5.25,8.3 -3.15,7.3 -1.05,0.55 -1.7,1.6 -1.3,2.1 -0.9,2.6 -0.25,1.55 -5.25,8.35 -6.25,8.4 -7.3,8.3 -9.45,1.1 -10.45,-1.1 -0.4,1.55 0,1.55 0.3,1.5 0.65,1.65 0.9,1.55 1.3,1.6 3.6,3.2 0,8.35 -0.2,1.6 -0.35,1.8 -1.6,3.95 -2.95,21.65 -0.7,12 -0.55,29.05 1,1.3 2.85,2.6 6.3,3.9 15.65,6.5 22.3,6.6 15.7,1.05 14.65,-1.05 1.75,-1.95 0.85,-1.2 0.15,-0.35 0.7,-0.9 3.3,-6.6 2.95,-9.1 2.85,-11.3 1.35,0.45 2.05,1.1 0.75,0.55 0,23.05 8.35,10.4 1.35,1.05 1,1.1 0.35,0.55 0.3,0.55 0.35,1.2 -0.05,1.2 -0.4,1.2 -0.75,1.25 -4.5,5.6 -1.95,1.9 -0.3,0.15 -1.65,1.7 -0.9,0.5 -0.2,0.25 -3.25,2.3 -0.35,0.1 -4.5,2.35 -5.35,1.75 -5.8,1.1 -9.75,0.5 -0.45,-0.1 -2.9,-0.05 -2.65,1.8 -3.65,1.35 -0.6,0.05 -1.65,0.35 -0.55,0 -0.1,0.05 -0.6,0.15 -0.55,0 -0.1,0.05 -0.6,0.1 -1.2,0 -0.15,0.05 -4.35,0.25 -4.8,-0.1 -13.55,-1.65 -12.35,-3.7 -7.55,-3.5 -7.05,-4.5 -6.55,-5.3 -8.75,-9.5 -2.1,-11.5 -3.15,-10.45 -1,-57.5 3.1,-13.6 0,-14.65 0.3,-0.35 0.35,-0.3 0.6,-0.7 0.2,-0.45 0.25,-0.45 0.15,-0.45 0.25,-0.4 0.05,-0.6 0.1,-0.55 0.05,-1.2 -0.05,-1.4 -0.15,-1.45 -14.65,2.05 -0.9,-0.5 -0.8,-0.3 -0.9,-0.2 -0.8,-0.05 -1,0.05 -1.95,0.5 -0.95,0.5 -7.35,3.15 11.05,15.05 1.8,3.45 0.8,3.3 0.05,1.6 -0.1,1.65 -4.15,13.65 -10.5,18.8 -0.3,0.4 -0.3,0.65 -0.2,0.4 -0.2,0.45 -9.35,15.1 -7.4,11.2 -14.65,14.65 -16.7,11.5 -1.85,1 -0.7,0.45 -0.55,0.6 -1,0.8 -0.9,0.3 -0.4,-0.15 -0.35,-0.15 -0.3,-0.35 -0.25,-0.45 8.4,-17.75 10.45,-18.8 17.8,-38.65 6.2,-16.7 1.05,-5 0,-4.9 -0.15,-1.25 -0.85,-3.55 -4.75,4.85 -0.5,0.65 -1.05,1 -1.05,0.6 -0.2,0 -0.35,0.15 -0.45,0.05 -3.05,-1.4 -2.6,-1.95 -1.2,-1.3 -2.2,-2.9 -1.85,-3.5 -1.45,-4.2 -2.05,-10.1 -0.25,-2.85 1.1,-5.45 0.35,-6.7 0.1,-0.15 -0.1,-0.3 -0.05,-3.75 -2.75,-25 0.05,-7.55 0.95,-6.55 1.4,-4.1 0.35,-0.3 1.7,-0.5 0.65,-0.1 4.45,0.25 7.5,1.7 1.05,3.75 4.5,34.55 1.85,8.25 0.85,2.55 0,0.15 0.05,0.1 0.35,0.9 0.15,0.4 0.35,0.5 0.2,0.05 26.15,-2.05 0.55,-0.8 0.65,-0.5 0.65,-0.45 0.75,-0.15 0.75,-0.05 0.9,0.1 0.95,0.3 1.05,0.45 3.15,-0.25 3.15,-0.8 0.3,0 1.1,0.2 0.3,0 3.55,0.4 0.25,-0.05 0.9,0 0.25,-0.05 0.85,0 2.15,-0.25 0.15,-0.1 1.65,-0.45 1.65,-0.7 1.45,-0.95 1.15,-1.15 2.3,-4.5 0.8,-2.3 0.05,-0.55 3.1,-8.35 -0.25,-0.7 -0.2,-0.65 -0.2,-1.3 0,-1.3 0.85,-2.6 0.7,-1.3 0.95,-1.3 1.3,-1.3 3,-5.1 0.65,-1.45 0.65,-2.7 0,-1.25 -0.1,-1 -1.55,-0.55 -1.35,-0.3 -5.25,-0.5 -1.25,-0.3 -1.05,-0.4 -3.15,2.05 -21.65,5.95 -6.75,2.9 -2.95,1.6 -0.6,-0.3 -1.35,-0.15 -1.55,0.3 -1.85,0.65 -3.8,2.1 -1.25,0.35 -1.15,0.15 -8.35,-6.25 -6.25,-7.3 28.2,-9.4 9.65,-2.4 2.15,-1.05 0.25,-0.2 0.3,-0.1 0.15,-0.25 0.25,-0.2 0.65,-0.7 0.2,-0.35 32.4,-68.95 -0.8,-3.95 -0.25,-3.4 7.1,-2.45 1.75,-0.4 0.7,-0.25 1.25,-0.25 0.55,0 0.4,-0.05 0.6,0.1 0.2,0.2 13.6,14.65"
         inkscape:connector-curvature="0"
         style="fill:#1a1a1a;stroke:none" />
      <path
         id="path3491"
         d="m 107.4,33.35 -0.5,2.35 0.05,1.35 0.25,1.35 0.45,1.6 1.25,2.85 0.4,1.2 0.05,0.25 0.35,0.9 0.2,0.95 0,0.4 0.05,0.45 -0.05,0.4 0,0.35 -0.05,0.1 0,0.2 -0.05,0.35 -0.6,5.8 -1.25,3.85 -0.55,1.25 -0.35,0.55 -0.3,0.55 -2.3,3.2 -1.95,1.9 -2.15,1.7 25.65,-1.05 3.05,0.25 2.85,0.55 2.55,0.9 1.15,0.6 2,1.3 1.85,1.65 1.5,1.9 1.2,2.2 -7.35,4.35 -6.25,2.7 -2.8,0.65 -2.45,0.3 -2.25,-0.15 -1.9,-0.5 L 64.8,89.15 27.6,97.4 15.45,98.7 9.4,98.55 8.4,94.95 6.55,91.45 5.25,89.75 1.95,86.5 0,84.95 0.15,84 l 0.4,-0.85 0.6,-0.9 1.8,-1.7 2.45,-1.65 3.25,-1.6 4,-1.5 13.45,-3.4 60.65,-2.05 9.4,-2.15 -7.3,-4.4 L 81.4,57.75 77.85,53.85 74.2,48.4 67.95,40 66.65,38.95 64.7,36.8 63.4,34.7 63,33.65 l -0.25,-1.1 -0.05,-0.9 -1,-0.75 -0.5,-0.45 -0.35,-0.5 -0.75,-1.25 -1,-3.45 -0.55,-7.2 0.55,-1.35 1.55,-2.25 1,-0.9 2.35,-1.65 2.9,-1.15 10.5,-2.15 9.35,2.15 10.45,3.1 7.35,7.35 5.25,9.35 -1.05,0.8 -0.75,1 -0.6,1"
         inkscape:connector-curvature="0"
         style="fill:#1a1a1a;stroke:none" />
    </g>
    <g
       id="g3493"
       transform="matrix(0.45713924,0,0,0.45713924,303.93351,555.46167)"
       style="fill:#1a1a1a">
      <path
         id="path3495"
         d="m 194.6,232.25 -0.7,0.35 -1.2,0.95 -1.15,1.2 -0.45,0.65 -0.8,1.6 -0.55,1.75 -0.5,3.3 -0.05,2.55 9.4,-3.15 15.65,0 9.75,-3.15 6.2,-1.3 2.5,-0.25 2.1,0 1.7,0.25 0.8,0.3 2.05,-9.4 -12.55,-3.2 -32.2,7.55 m 42.8,-28.8 -1.2,-3.8 -32.35,6.3 -0.9,0 -1.7,0.25 -1.85,0.45 -6.85,3.65 -1.75,0.6 -0.85,0.2 -0.75,0.05 0.1,2 0.9,5.3 7.3,-1.05 12.6,-1 0.2,-0.05 1.1,-0.5 0.35,-0.35 1.45,-1.25 24.1,-3.1 0.35,-0.95 0.1,-0.55 0.2,-0.45 0.05,-1.25 0,-1.3 -0.6,-3.2 m -56.8,-33.85 1.3,-0.3 21.95,-2.05 20.85,-3.15 1.9,0.45 0.2,0 0.7,0.15 2.25,0.35 0.25,0 0.95,0.15 0.75,-0.55 1.4,-0.8 0.7,-0.25 0.6,-0.3 1.25,-0.25 0.55,0 2.85,-1.1 0.95,-0.25 0.75,-0.3 3.45,-0.65 1,-0.05 0.8,0.05 0.3,0.05 0.35,0.2 2.25,0.65 1.15,0.45 3.4,2.15 2.3,1.95 3.25,3.45 5.4,8.05 0,15.7 2.15,14.6 1,0 -1,33.45 -1.05,10.45 -3.15,10.45 -0.15,1.4 -0.35,1.2 -0.75,0.9 -0.4,0.35 -1.25,0.8 -1.15,1 -0.85,1.1 -0.15,0.55 -0.2,1.1 10.45,6.25 7.3,8.35 4.75,7.25 0.3,0.6 0.85,1.5 0.15,0.35 0.05,0.1 0.1,0.2 0.15,0.45 -2.15,7.3 -4.2,6.3 -4.7,-1.1 -4.75,-2.05 -2.35,-1.45 -5.9,-4.75 -16.75,-16.75 -0.1,-0.6 -0.15,-0.35 -0.05,-0.1 0,-0.2 -0.75,-1.4 -1.35,-1.75 -5.85,-6.4 -1.2,-1.75 -0.8,-0.35 -1.65,-0.95 -0.7,-0.6 -2.4,-2.4 -0.7,-0.95 0,-1.25 0.25,-1.95 0.45,-1.3 0.45,-0.4 0.4,-0.25 0.55,-0.05 11.5,2.05 0.7,-4.75 0.05,-3.6 -0.25,-1.5 -0.35,-1.2 -0.5,-0.85 -0.35,-0.35 -0.3,-0.25 -19.9,1 -20.9,4.2 0,10.45 0.15,1.4 -0.1,0.1 0,1.25 -0.2,1.15 -0.45,0.85 0,0.2 -0.35,0.35 -0.1,0.05 -0.2,0.35 -0.75,0.7 -1,0.5 -1.2,0.4 -1.15,1.6 -3.55,3.05 -9.9,5.85 -0.6,0.55 -0.4,0.3 -0.65,0.25 -2.3,1.45 q -5.85,2.9 -11.75,5.75 l -7.3,6.35 -8.4,2.05 -2.1,1.55 -1.1,0.35 -1,0.15 2.35,-4.4 0.6,-1.65 0.2,-0.7 0.05,-0.55 25.1,-28.2 0.4,-0.55 0.05,-0.2 0.35,-0.6 0.1,-0.6 0.25,-0.65 0.1,-0.75 0.25,-0.85 0,-0.55 0.2,-1.5 0.3,-8.05 0.05,-0.35 -1.05,-4.2 -0.3,-0.8 -0.25,-2.05 0.1,-1.25 0.15,-0.6 0.3,-0.45 3.15,-1.1 0,-56.45 1,-9.35 0.3,-1.3 1,-2.15 1.6,-1.6 2.15,-1 m 10.15,13.8 -0.2,0.45 -0.3,0.9 -0.05,9.7 44.95,-6.3 0,-11.5 -0.35,-0.55 -0.75,-0.85 -1.1,-0.45 -1.25,-0.25 -0.75,0 -0.7,0.35 -0.4,0.15 -0.45,0.05 -0.6,-0.05 -2,-0.5 -30.3,8.4 -1.5,-0.5 -1.3,-0.15 -1.15,0 -0.45,0.1 -0.35,0.25 -0.45,0.15 -0.55,0.6"
         inkscape:connector-curvature="0"
         style="fill:#1a1a1a;stroke:none" />
      <path
         id="path3497"
         d="m 39.15,130.8 -0.5,-1.2 7.3,-3.1 2.9,-0.55 4.4,-1.55 7.4,1 7.3,-2.05 21.95,-1.05 14.45,-1.5 4.5,0.15 1.95,0.3 5.2,6.3 -10.45,6.25 -11.5,2.1 -10.45,1 -10.45,4.2 -19.9,-3.4 -4.75,-1.5 -4.1,-1.95 -0.5,-0.45 -0.85,0.1 -0.7,0 -0.7,-0.2 -0.65,-0.45 -0.65,-0.65 -1.2,-1.8"
         inkscape:connector-curvature="0"
         style="fill:#1a1a1a;stroke:none" />
      <path
         id="path3499"
         d="m 46.5,163.6 0.5,0 3.15,-0.7 1.15,-0.45 0.95,-0.45 16.7,0 0.55,0.35 0.35,0.1 0.4,0.1 0.85,-0.2 1,-0.35 24.75,-3.45 6.5,-0.2 2.9,0.2 3.75,0.9 2.25,0.95 2.85,1.85 2.2,2.3 0.05,0.1 0.75,1.25 0.2,0.6 0,0.3 0.05,0.35 -0.05,0.55 -0.2,0.6 -0.95,1.2 -0.9,0.75 -0.2,0.3 -1.45,0.9 -0.75,0.35 -0.25,0.05 -0.5,0.35 -1.65,0.4 -0.2,0.15 -0.3,0 -1.7,0.4 -2.25,0.25 -2.45,0.1 -1.35,-0.2 -6.7,0 -3.45,0.65 -2.1,0.9 -1.05,0.8 -30.05,5.75 -3.65,0.35 -6.85,-0.15 -6.25,-1.45 -4.2,-1.75 -7.6,-3.85 -7.3,-5.25 0.8,-1.25 0.55,-0.55 1.95,-1.35 0.75,-0.45 1.75,-0.65 4.05,-0.8 3.8,-0.15 0.1,-0.05 8.75,-0.45"
         inkscape:connector-curvature="0"
         style="fill:#1a1a1a;stroke:none" />
      <path
         id="path3501"
         d="m 241.4,51.75 8.4,-0.9 7.55,-2.05 5.5,-0.95 4.75,-0.1 3.25,0.65 3.5,1.3 3.05,2.15 1.65,1.45 2.85,3.4 1.8,1.45 0.6,0.35 -1.05,0.95 -1.2,0.7 -0.35,0.3 -4.5,1.95 -0.2,0 -2.85,0.9 -0.45,0.05 -7,1.65 -0.55,0.05 -3.8,0.85 -27.2,2.05 -6.25,10.45 0.35,0.15 0.75,0.25 2.55,0.35 8.85,0.3 10.5,2.05 1.2,0.55 2.05,1.5 0.9,0.85 1.3,2 1,2.9 0.1,0.5 0,0.4 -0.05,0.45 -0.4,0.8 -0.65,0.75 -0.55,0.25 -0.6,0.35 -1.1,0.35 -0.35,0.15 -0.5,0.1 -1.35,0.35 -2.05,0.35 -17.15,0.8 -22.3,3.55 -20.15,5 -7.7,0.55 -1.1,0.2 -2.8,0.8 -3,1.65 -1.1,1 -10.45,-6.25 -10.4,-7.3 -0.2,-1.05 0.1,-0.9 0.4,-0.85 1.55,-1.3 2.6,-0.85 20.6,-2.4 18.85,-3.1 0,-9.45 -15.7,2.15 -9.4,0 -0.35,-0.1 -0.3,0 -1.05,-0.2 -1.2,-0.25 -2.95,-1.05 -0.2,-0.05 -1.25,-0.5 -8.4,-5.2 -10.45,-8.35 0.8,-1.5 1,-1.15 1.1,-0.95 1.25,-0.6 1.35,-0.4 0.7,-0.15 2.45,0.15 1.8,0.4 5.5,0.3 0.35,-0.05 1.2,0 0.65,-0.15 0.1,-0.05 0.55,0 1.2,-0.3 0.85,-0.4 0.15,0 0.95,-0.4 13.6,0 2.25,-0.55 6.1,-0.55 3.35,0.25 1.5,0.3 1.4,0.55 0,-13.6 0.2,-0.95 0,-0.25 0.15,-0.75 0.15,-2.4 0.05,-0.1 -0.05,-0.25 0,-1.3 -0.5,-5.5 -5.2,-25.05 0.3,-1.3 0.45,-1.1 L 193.55,2 194.7,0.95 196.15,0.3 197.3,0.05 208,0 l 20.9,13.6 4.2,7.35 0.65,2 0.05,2.1 -0.6,2.05 -1.15,2.15 0,20.95 2.1,0.65 2.3,0.45 4.95,0.45"
         inkscape:connector-curvature="0"
         style="fill:#1a1a1a;stroke:none" />
      <path
         id="path3503"
         d="m 233.1,139.05 4.1,-0.3 2.45,0.1 1.3,0.25 1,0.35 0.8,0.55 0.3,0.35 0.5,0.75 0.7,-1.25 1.55,-1.7 1.5,-0.8 0.85,0 0.8,0.15 0.85,0.5 0.35,0.05 0.4,0 0.95,-0.25 1,-0.5 1.2,-0.9 1.15,-1.25 4.4,-5.55 4.1,-15.7 -11.45,0 -11.5,2.15 0.6,3.05 -0.1,3.2 -0.95,3.05 -6.85,13.7 m -51.85,-12.4 -0.45,-1.25 -11.5,3.15 0,15.7 9.4,0 3.5,-0.35 1.2,-0.45 0.25,-0.15 0.75,-0.35 0.2,-0.35 0.1,-0.05 0.3,-0.4 0.3,-0.85 0,-1.05 -0.3,-1.2 -0.5,-1.05 -1.4,-3.45 -0.2,-1.3 0,-0.5 -0.1,-0.35 0,-0.3 -0.45,-2.25 -1.05,-2.95 -0.05,-0.25 m -33.1,-14.1 0.45,-0.15 0.6,-0.75 0.05,-0.2 0.1,-0.2 0.1,-0.45 18.8,2.1 98.3,-10.45 4.2,-3.15 3.6,-0.3 1.4,-0.3 1.25,-0.4 1,0 2.25,0.35 3.6,1.35 2.5,1.4 5.5,3.9 6,5.5 0.15,2.6 -0.55,3.1 -3.25,7.85 -6.2,9.9 -8.95,12.1 -10.45,11.5 -8.35,-1.05 -8.35,-5.25 -12.55,3.15 -3.7,-1.1 -2.55,-1 -1.05,0.8 -1.1,0.45 -0.55,0.05 -1,-0.05 -1.55,-0.45 -1.9,-0.15 -1.55,0.25 -1.3,0.65 -0.45,0.55 -33.45,4.15 -17.95,4.75 -2.95,1.1 -2.15,1.5 -1.2,1.1 -0.9,1.25 -0.65,1.35 -0.2,0.7 -0.15,0.85 -4.2,4.2 -1.5,-2.25 -2.6,-4.95 -2.6,-7.4 -5.85,-33.5 -0.95,-1.65 -0.65,-1.55 -0.25,-0.8 -0.2,-2.3 0,-6.3 0.7,-1.35 0.75,-0.55 0.6,-0.15 0.1,-0.05 0.55,0 0.65,-0.1 0.35,-0.2 0.2,0 m 71.2,8.45 0,-0.9 0.05,0 0.05,-0.95 -20.85,3.15 4.15,18.8 12.6,-2.05 4.1,-10.5 -0.5,-0.35 -0.35,-0.35 -0.3,-0.45 -0.25,-1.05 0.1,-1.25 0.5,-1.05 0.2,-0.4 0.3,-1.1 0,-0.45 0.2,-1.1"
         inkscape:connector-curvature="0"
         style="fill:#1a1a1a;stroke:none" />
      <path
         id="path3505"
         d="m 89.55,24.05 1.4,0.35 0.7,0.4 1.25,0.95 1.15,1.45 1.4,1.3 0.55,0.4 0.9,0.6 0.85,0.4 0.15,0.1 0.85,0.3 0.2,0 0.7,0.2 0.8,-0.05 0,-0.1 0.4,0 0.5,-0.05 4.5,6.15 0.05,0.1 2,3.15 0.05,0.1 1.4,2.55 0.15,0.15 0.75,1.95 0.3,0.9 0.2,0.75 0.1,0.75 -0.05,1.2 0.85,1.75 0.8,2.2 0.95,5.75 0.1,3.4 -0.65,13.05 7.6,-1.15 8.75,-0.2 3.65,0.6 3.2,0.85 2.7,1.3 2.35,1.75 1,1.05 -0.15,3.25 -0.15,0.65 -0.05,0.1 0,0.55 -0.15,1.15 -0.7,1.75 -0.4,0.35 -0.05,0 0,0.15 -0.2,0.2 -0.2,0.2 -29.25,2.1 -3.2,0.75 -3.05,0.3 -7.35,0 -20.95,4.2 -27.1,4.2 -1.4,2.3 -0.85,0.9 -0.95,0.9 -0.6,0.3 -0.55,0.35 -0.35,0.1 -0.1,0 -0.15,0.2 -0.6,0.35 -1.35,0.4 -0.4,0 -0.05,0.1 -11.5,3.45 -0.8,0.2 -0.85,0.05 -0.8,-0.05 -0.75,-0.2 -1.55,-0.8 -0.85,-0.6 -1.8,-1.6 -0.65,-0.4 -1.3,-0.55 -1.45,-0.25 -0.7,0 -0.65,-1.05 -0.8,-0.95 -1.1,-0.95 L 13.65,99 12.1,98.35 8.35,97.2 6.6,96.35 3.7,94.5 1.6,92.4 1.15,91.8 0.3,90.1 0,88.85 7.3,81.5 l 13.55,0 12.6,-3.1 32.4,0 28.2,-4.2 -5.2,-8.3 -3.15,-9.45 -4.2,-5.25 -0.25,-2.35 -0.4,-1 -0.4,-0.85 -0.65,-0.75 -1.15,-0.85 -1.3,-0.45 0.1,-0.85 0,-0.8 -0.25,-0.85 -0.4,-0.7 -0.65,-0.8 -1.85,-1.55 -1.15,-0.7 0.1,-0.5 0,-0.65 -0.2,-0.95 -0.25,-0.5 -0.2,-0.6 -0.5,-1.05 0,-0.05 -0.15,-0.35 -0.8,-1.7 L 71,32.2 68.55,27.4 68.15,26 l 0,-0.6 0.15,-1.1 0.25,-0.5 0.8,-0.75 1.2,-0.6 1.55,-0.35 3.15,-0.15 13.6,2.1 0.7,0"
         inkscape:connector-curvature="0"
         style="fill:#1a1a1a;stroke:none" />
      <path
         id="path3507"
         d="m 56.45,232.05 2.05,6.3 21.95,3.1 1.05,-21.95 -12.55,1.1 -12.5,3.1 0,8.35 m 52.2,-28.75 1,0.9 1.6,1.85 1,1.95 0.6,2.1 -0.2,0.55 -0.1,1.75 0.1,1.4 0.5,1.1 0.15,0.3 0.3,0.35 0.6,0.45 0.75,0.4 0,10.45 -0.1,1.05 0,0.4 -0.15,1.35 -0.3,0.9 -0.05,0.35 -0.25,0.55 -0.2,0.6 -0.65,0.9 -0.7,0.9 -0.9,0.7 -0.45,0.3 -0.4,0.35 -0.6,1.35 -0.1,0.15 -0.45,1.25 -3.9,7.4 -0.4,0.5 -1.9,2.6 -0.4,0.45 -0.35,0.55 -0.45,0.4 -2.95,3.1 -20.9,5.2 -15.1,3.05 -4.2,1.4 -1.65,0.8 -0.05,0.15 -0.15,4.9 -0.15,1.5 0,0.55 -0.1,0.9 -0.1,0.05 0,0.8 -0.2,0.75 -0.15,0.6 -0.2,0.6 -0.15,0.55 -0.4,0.75 -0.25,0.25 -0.15,0.25 0.1,0.7 0,0.8 -0.25,0.75 -0.4,0.8 -1.45,1.55 -2.2,1.65 -5.25,-9.45 -4.15,-9.4 -3.15,-10.45 -2.1,-10.4 -1.05,-10.5 -7.85,-20.15 -0.45,-2.45 0,-2.4 0.45,-2.2 0.55,-1 5.6,-3.9 0.8,-0.5 0.9,-0.35 0.7,-0.4 1.45,-0.6 1.9,-0.45 1.2,-0.1 2.5,2.1 3,1.7 4.7,1.55 2.65,0.5 5.95,0.45 21.95,-1.1 6.3,-4.15 0.5,-0.1 2.05,-0.45 3.7,-1.55 7.75,2.8 3.15,1.45 3.7,2.55"
         inkscape:connector-curvature="0"
         style="fill:#1a1a1a;stroke:none" />
    </g>
    <g
       id="g3509"
       transform="matrix(0.45713924,0,0,0.45713924,504.36776,556.7988)"
       style="fill:#1a1a1a">
      <path
         id="path3511"
         d="m 137.9,208.5 1.05,0.45 0.8,0.6 0.35,0.4 0.35,0.95 0.15,1.3 1.9,0.4 0.2,0 0.7,0.15 0.15,0 0.7,0.2 1.45,0.2 0.3,0 0.95,0.1 2.55,0.1 1.3,0.25 0.95,0.35 0.35,0.3 1.1,-1 1.05,2.05 0.75,-0.25 0.9,0.1 0.9,0.15 1.05,0.5 2.25,1.4 2.45,2.3 0.15,1.05 5.9,15.55 0.2,0.9 0.25,1.85 -0.05,0.05 0,0.85 -0.4,1.7 -0.9,1.45 -0.35,0.3 -0.95,1.1 -1.3,0.85 -0.4,0.35 -2.15,1.2 -5.95,-0.35 -4.25,-1 -1.55,-0.8 -0.55,-0.45 -0.45,-0.4 -0.4,-0.55 -0.25,-0.5 -0.15,-0.6 0,-0.6 -2.05,-4.2 -0.9,-1.05 -0.5,-1.05 -0.05,-1.1 0.05,-0.5 0.3,-0.5 -0.8,-0.05 -0.7,-0.15 -1.4,-0.6 -1.2,-1 -1.15,-1.3 -0.15,-1.95 -0.35,-1.5 -0.35,-0.65 -0.35,-0.45 -0.45,-0.4 -0.4,-0.25 0.2,-0.6 0.05,-0.6 -0.05,-0.35 0,-0.3 -0.2,-0.55 -0.75,-1.25 -0.1,-0.15 -0.25,-0.4 -1.9,-2.1 -0.65,-1.1 -0.4,-1.05 -0.15,-0.5 0,-0.5 -1.45,-0.8 -1.1,-0.85 -0.75,-0.8 -0.35,-0.75 -0.15,-0.8 0.25,-0.7 0.55,-0.85 0.95,-0.7 1.9,-0.45 2.4,-0.25 1.3,0.15"
         inkscape:connector-curvature="0"
         style="fill:#1a1a1a;stroke:none" />
      <path
         id="path3513"
         d="m 190.55,216.5 0.1,-1.65 0.15,-0.6 -2.15,-1.35 -1.65,-1.3 -1.25,-1.3 -0.4,-0.7 -0.6,-1.3 -0.05,-0.6 0.15,-1.3 0.2,-0.7 0.95,-1.3 0.65,-0.6 2.5,-0.75 5.1,-0.8 4.95,0 3.65,0.5 3.65,1.05 6.7,6.15 3.75,4.3 2.25,3.3 0.6,1.1 0.8,2.05 0.55,1.95 -0.65,3.85 -1.2,5.1 -0.4,1.25 0,0.2 -0.95,2.6 -0.85,1.6 -0.25,0.55 -0.35,0.4 -0.9,1.25 -0.7,0.65 -0.55,0.35 -0.1,0.15 -0.25,0.1 -1.25,0.75 -4.15,0 -0.6,-0.55 -0.5,-0.3 -0.5,-0.15 -1,-0.1 -0.5,-0.15 -0.85,-0.35 -0.8,-0.7 -0.5,-0.85 -1.55,-0.4 -1.3,-0.45 -0.65,-0.35 -1.45,-1.15 -0.9,-1.05 -0.65,-1.1 -0.55,-1.4 -3.4,-12.9 -0.8,-0.1 -0.35,-0.15 -0.2,-0.1 -0.3,-0.25 -0.2,-0.25 -0.3,-0.5 -0.15,-0.8 -0.05,-0.85"
         inkscape:connector-curvature="0"
         style="fill:#1a1a1a;stroke:none" />
      <path
         id="path3515"
         d="m 250.45,25.15 2.05,-0.05 16.75,12.5 6.05,4.5 3.5,3.65 1.7,2.85 0.75,1.75 0.5,1.9 4.95,5.4 2.65,3.8 1.25,2.55 0.25,0.7 0.05,0.35 0.1,0.4 0.2,1.4 -0.55,0.5 -0.4,0.5 -0.65,1.1 -0.4,1.05 -0.15,1.05 -2.1,2 -3.15,2.15 -9.35,4.25 -1.1,-0.9 -1.05,-0.45 -1.05,-0.1 -0.55,0.1 -0.45,0.25 -2.1,1.1 -5.25,-2.1 -1,-0.7 -0.45,-0.4 -1.1,-1.65 -0.55,-1.4 -11.5,-7.35 -3.15,-1.05 -0.2,0.05 -0.2,0.15 -0.45,0 -0.15,0.05 -0.25,-0.05 -0.55,0 -0.55,-0.15 -0.1,-0.05 -0.45,0 -1,-0.35 -0.1,-0.05 -0.2,0 -1.15,-0.35 -0.35,-0.05 -3.65,-1.25 -0.5,0.05 -1.25,0.3 -0.85,0 0,0.05 -0.85,0.05 -0.1,-0.05 -1.85,-0.05 -1,-0.2 -1.75,-0.4 -0.8,-0.05 -0.7,0.05 -0.65,0.2 -0.65,0.25 -1.15,1.1 -0.5,0.75 -11.15,-3.95 -0.35,-0.25 0.5,-0.95 0.55,-0.65 0.5,-0.35 0.6,-0.1 0,-0.05 0.4,0 0.4,-0.15 0.7,-0.35 0.35,-0.7 0.15,-0.4 0.05,-0.5 6.25,1.1 0,-0.05 0.9,0 0.4,-0.15 0,-0.05 0.4,0 0.15,-0.1 0,-0.1 0.15,0 0.3,-0.1 0.25,-0.15 0.3,-0.15 0.3,-0.45 0,-0.2 0.15,-0.35 -0.05,-0.35 0,-0.3 -0.05,-0.35 -0.05,-0.1 0,-0.2 -0.2,-0.25 0.1,-0.55 0.25,-0.35 0.25,-0.5 0.8,-1.1 0.6,-0.65 0.6,-0.85 7,-7.25 0.45,-0.8 0.85,-1.3 0.5,-0.55 0.35,-0.55 0.65,-0.75 0.35,-0.25 1.1,-1.1 0.15,-0.35 0,-0.2 0.05,0 0.1,-0.1 0.15,-0.6 -0.15,-0.7 -0.3,-0.7 -0.45,-0.8 -0.65,-0.7 -2.05,0 -1.1,-1 -0.2,0.3 -0.2,0.35 -0.15,0.15 -0.35,0.5 q -0.2,0.15 -0.45,0.25 l -0.35,0.3 -0.95,0.45 -2.15,0.5 -0.3,0.1 -0.45,0 -1.1,0.2 -1.7,0.05 -0.85,-0.2 -1.4,-0.1 -1.25,0.05 -1.05,0.25 -1.3,0.65 -0.65,0.65 -0.55,0.8 -0.25,1 -12.55,0 -10.5,-6.25 16.75,-2.1 15.7,-1 3.2,0.35 3.6,1.35 2.6,1.4 2.05,-2.1 2.6,0.2 0.5,0.15 0.4,0.15 0.7,0.55 0,-0.85 0.1,-0.7 0.35,-1.2 0.65,-1.15 0.45,-0.45 1.05,-0.8 1.3,-0.55 2.45,-0.5"
         inkscape:connector-curvature="0"
         style="fill:#1a1a1a;stroke:none" />
      <path
         id="path3517"
         d="m 149,1 14.6,7.35 7.35,6.3 0.7,2.75 1.05,2.9 0.8,1.3 0.65,1.45 0.15,0.7 0.05,1.25 -0.3,1.1 -1.05,0.3 -2,1 -1.85,1.6 -1.65,2.1 -0.75,1.3 11.5,2.1 1.7,-0.3 3.15,-0.15 2.6,0.3 2.1,0.65 0.9,0.55 1.2,0 1.95,0.35 0.75,0.4 0.5,0.4 0.5,0.55 0.25,0.65 0.1,0.75 -8.4,0 -0.35,0.65 -0.2,0.3 -0.2,0.35 -0.3,0.25 -0.25,0.3 -0.5,0.45 -0.4,0.15 -0.35,0.15 -0.45,0.15 -0.35,0.15 -0.45,0.05 -0.45,0.15 -0.9,0.05 -1.1,-0.3 -1.85,-0.25 -1.55,0 -1.3,0.25 -0.55,0.3 -16.4,4.75 -2.05,0.85 -1.4,0.7 -0.5,0.35 -0.2,0.15 -0.15,0.15 -0.15,0.35 -10.45,5.25 -6.25,0 -1.6,-0.15 -1.35,-0.35 -1.85,-1.15 -0.45,-0.45 -27.2,6.3 -1.15,1.9 -0.35,0.4 -0.85,1.3 -1.4,1.4 -0.35,0.2 -0.05,0.1 -1.05,0.95 -1.35,-0.05 -3.15,-0.5 -1.65,-0.7 -1.15,-0.8 -3.15,1 -10.55,4.4 -8,4.85 -3,2.6 -2.35,2.65 -1.7,2.85 -0.55,1.45 -1.75,1.05 -0.4,0.45 -0.45,0.3 -0.2,0.35 -0.35,0.7 -0.2,0.6 0,0.3 0.1,0.35 0.45,0.55 0.7,0.6 -21.95,18.85 -0.7,0.05 -0.45,0.1 -1.05,0.5 -2,1.15 -2.7,1.55 -7.2,5 -1.5,0.6 -1.45,0.1 -0.7,-0.05 -0.6,-0.15 -1.3,-0.85 -1.2,-1.15 -1.15,-1.7 -1,-2.05 -0.8,-2.9 -0.75,-5.65 0,-5.5 0.3,-2.65 1.25,-5.25 0.95,0.05 3.05,-0.15 0.95,-0.25 0.45,-0.15 0.55,-0.15 1.9,-0.7 1.75,-1.1 1.25,-1 0.45,-0.3 1.65,-1.65 13.15,-15.55 -2.05,-9.35 -4.2,-8.4 1.1,-1.05 1.05,0.8 0.6,0.3 0.65,0.2 1.35,0.05 1.5,-0.3 0.95,0.5 2.95,1.1 0.85,0.2 0.15,0 0.7,0.15 0.85,0.1 0.4,0 0.5,0.1 7.7,4.6 0.65,0.55 0.45,0.5 0.35,0.6 0.15,0.45 0.1,0.6 20.9,-4.2 7.35,-2.1 7.3,-3.15 2.8,0.3 1.25,0 0.25,-0.05 0.9,0 0.95,-0.2 0.15,-0.1 0.7,-0.2 0.35,-0.2 0.35,-0.2 0.3,-0.25 0.35,-0.15 13.6,-3.15 4.05,-1.35 3.65,-0.7 0.65,0 0.55,-3.2 -0.05,-0.3 0,-0.15 -0.15,-0.3 -0.15,-0.2 -0.2,-0.05 2.85,-6.65 1.1,-4.2 0.25,-2.35 -0.15,-2.05 -0.5,-1.75 -0.4,-0.7 -0.55,-0.65 -0.5,-0.45 0.05,-0.5 0,-0.4 0.05,0 -0.05,-0.8 -0.2,-0.5 -0.15,-0.35 0,-0.05 -0.5,-0.85 -0.2,-0.25 -1.55,-1.7 -0.35,-0.25 -2.3,-1.65 -0.95,-0.85 -0.65,-0.7 -0.4,-0.7 -0.15,-0.65 0.15,-0.65 0.4,-0.6 0.65,-0.6 0.95,-0.45 1.45,0.35 0.3,0 1.05,0.1 0.6,-0.05 0.15,-0.05 0.5,0 0.35,-0.2 0.2,0 0.6,-0.15 2.35,-3.75 0.6,-1.4 L 129.1,1.55 129.15,1 126,0 137.5,0 149,1"
         inkscape:connector-curvature="0"
         style="fill:#1a1a1a;stroke:none" />
      <path
         id="path3519"
         d="m 158.9,170.9 -1.2,0.15 -0.5,0 -0.1,0.05 -0.65,0.15 -3.6,0.15 -0.95,0.25 -1.35,0.45 -2.6,1.4 -0.35,-0.1 -0.15,-0.05 -0.15,0 -0.35,-0.1 -0.15,-0.05 -0.15,0 -0.9,-0.3 -0.95,-0.4 -1.25,0.4 -1.4,0.3 -5.95,0.5 -1.45,0.3 -1.45,0.55 -1,-1.05 -2.15,1.05 1.45,2.75 5.2,6.8 3.8,4 0.25,0.4 0.35,0.45 0.4,0.3 0.55,0.15 1.2,0.05 1.45,-0.3 2.7,0.55 1.5,0.55 10.45,-3.15 10.45,-2.1 11.5,0 9.4,-3.15 0.5,0.6 0.6,0.45 0.6,0.2 0.6,0 0.65,-0.25 0.75,-0.45 1.5,-1.6 -3.1,-9.4 -1.9,-1.1 -0.75,-0.65 -0.55,-0.6 -0.45,-0.7 -0.3,-0.7 -0.2,-0.8 -0.05,-0.7 -27.15,3.2 -0.25,0.2 -0.15,0.2 -0.2,0 0,0.05 -0.35,0.35 -1.7,0.75 m 72.85,-80.25 1.65,1.9 0.75,1.2 0.05,0.25 0.3,0.9 0.05,1.15 -0.3,1.1 -0.2,0.2 -0.4,0.9 -6.25,8.4 -3.1,9.35 -0.25,6.8 -0.2,1.05 0,0.4 -0.65,5.5 -0.2,1.2 -0.2,0.35 0,0.15 -0.35,1.75 -1,2.8 -0.1,0.2 -0.2,0.7 0.4,0.35 0.45,0.45 0.55,1.05 0.2,0.5 0.15,1.2 0,0.65 -0.1,0.65 -0.7,2.25 -2,3.4 0.4,0.7 0.45,1.55 0.15,0.8 -0.3,1.55 -0.3,0.85 -0.95,1.75 -0.65,1.85 -0.3,1.5 0.15,1.35 0.3,0.6 -10.65,18.05 0,0.65 0.1,0.3 0.15,0.2 0.25,0.2 0.7,0.45 0.85,0.15 1.2,0.05 3.2,-0.15 2.6,0.65 2.6,0.05 2.55,-0.6 1.3,-0.5 1.4,-0.65 10.5,-1.1 1,-1 2.35,-1.45 2.6,-0.8 2.9,-0.1 13.1,1.3 7.3,5.2 7.3,4.2 10.45,4.15 10.45,6.3 0.6,0.55 1,1.45 0.7,1.45 0.25,0.85 0.3,1.7 0,0.8 -0.4,2.8 -0.55,1.95 -7.15,15.65 -0.25,0.25 -0.15,0.35 -0.25,0.3 -0.2,0.35 -0.5,0.4 -0.15,0.15 -0.65,0.5 -0.7,0.15 -0.15,0.1 -0.95,0.3 -0.6,0.1 -0.55,0.1 -1.15,0.05 0.9,0.25 0.75,0.35 0.5,0.4 0.45,0.55 0.1,0.5 0,0.65 -0.6,1.5 -1.1,1.05 -0.25,0.4 -0.3,0.3 -0.7,1.65 -0.05,0.65 0.05,0.6 0.25,0.6 -2.25,6.3 -0.65,1.5 -0.65,1.1 -0.6,0.85 -0.6,0.5 -0.2,0.15 -0.25,0.05 0.35,0.75 0.25,0.85 0,0.8 -0.15,0.95 -0.9,1.9 -1.65,2.05 -1.5,1.4 -1,1.5 -0.75,1.8 -0.15,0.45 0,1.3 0.05,0.4 0.2,0.45 -10.35,15 -0.2,0.55 -2.5,3.4 -1.35,1.4 -1.45,1.2 -1.25,0.7 -0.35,0.3 -0.5,0.2 -1.25,0.65 -0.7,0.15 -0.15,0.15 -0.85,0.35 0.15,0.9 -0.1,0.5 -0.05,0.25 0,0.3 -0.8,1.9 -1.8,1.75 -2.65,1.7 -7.3,6.3 -21.25,4.95 -6.05,0.7 -1.1,-0.05 -0.45,-0.05 -0.35,0 -0.7,-0.15 -0.45,-0.2 -15.65,-15.65 0.1,-2.05 -0.25,-1 -0.4,-0.9 -0.65,-0.95 -0.75,-0.8 -8,-5.55 -1,-0.95 -1.3,-1.65 -0.3,-0.75 -1.05,-2.15 -7.3,0 -8.4,-8.35 -0.75,0.1 -0.65,0 -0.55,-0.25 -0.4,-0.4 -0.4,-0.65 -0.35,-1.85 0,-1.15 7.3,0 8.55,2.55 1.2,0.45 0.2,0.05 4,1.55 0.4,0.1 1.35,0.55 0.75,0 3.9,0.7 3.7,1.35 21.95,0 12.1,1.2 1.3,0 0.25,0.05 0.6,-0.1 0.1,-0.1 0.55,0 0.35,-0.15 0.15,0 0.55,-0.1 0.35,-0.3 0.4,-0.25 0.15,-0.2 0.15,-0.1 0.15,-0.2 0.15,-0.1 0.05,-0.25 0.15,-0.15 0.05,-0.25 0.1,-0.15 0.05,-0.5 0,-0.4 0.1,0 3.1,-3.15 4.2,-11.5 6.25,-10.45 1.6,-3.7 0.35,-1.4 0.15,-1.15 3.15,-6.3 0.05,-2.4 1.05,-6.5 3.6,-10.05 1.55,-3 -2.6,-3.6 -0.5,-0.6 -0.1,-0.75 -0.15,-0.65 -0.6,-0.95 -0.45,-0.4 -1.2,-0.35 -0.65,0 0.05,-1.25 -0.25,-0.95 -0.2,-0.4 -0.3,-0.35 -0.4,-0.3 -1.1,-0.4 -1.4,-0.2 -3.65,0.4 -1.15,0.3 -0.85,-1 -2.15,-1.65 -1.85,-0.8 -3.85,-0.65 -12.15,-1.15 -2,0.8 -1.75,0.25 -1.4,-0.25 -0.65,-0.4 -0.45,-0.4 -9.45,2.15 -9.4,3.1 -8.35,0 -3.1,1.25 -2.7,0.85 -2.5,0.2 -1.15,-0.05 -1,-0.15 -3.75,1.55 -1.4,0.35 -1.15,0.2 -7.35,0 -7.3,1.05 -7.3,0 -0.5,0.05 -0.4,0.15 -1.7,0.05 -1.85,-0.25 -2.9,-1.05 -10.45,1.05 -0.8,-0.2 -0.85,-0.1 -0.8,0.1 -1.55,0.45 -1.5,1.05 -0.75,0.8 -1.15,0.8 -0.35,0.1 -0.2,0 0,0.1 -0.1,0.1 -0.6,0.2 -1.35,0.05 -1.5,-0.3 -15.6,9.35 -7.4,0.35 -3.4,0.85 -1.25,0.55 -0.95,0.65 -0.65,0.75 -0.25,0.7 -0.05,0.35 0.2,1.15 0.35,0.7 1.1,1.25 1.8,1.1 2.1,0 1.85,0.95 3.05,1.1 0.4,0 0.15,0.05 0.55,0.15 2.25,0 0.55,-0.15 0.6,-0.05 13.6,11.5 1,9.45 0,9.4 -0.95,1.05 -0.1,0.05 -0.15,0.35 -1.45,1.35 -1.3,0.9 -0.4,0.35 -1.9,1.2 -1.45,-1.35 -0.35,-0.25 -0.8,-0.4 -0.5,-0.15 -1.1,2.15 -11.5,-11.5 -10.4,-12.6 -5.2,-12.5 -1.6,-0.15 -1.35,-0.35 -1.85,-1.15 -0.45,-0.45 -0.25,0.3 -0.2,0.35 -0.45,0.6 -0.35,0.15 -0.35,0.25 -0.25,0.05 -0.55,0.35 -0.25,0 -0.8,0.2 -0.85,0 -0.25,0.05 -2.8,-0.2 -0.75,0.65 -0.3,0.15 -0.25,0.15 -0.3,0.1 -0.2,0.2 -3.2,0.85 -4.65,0.2 -6.05,-0.2 -1.1,-0.2 -1.9,0.05 -1.4,0.35 -0.45,0.35 -0.45,0.45 -0.35,1.05 0.05,1.35 0.6,1.7 1.9,3.25 2,0.7 1.5,0.8 1.15,1 1,0.7 0.6,0.15 0.45,0.1 0.6,0 1.05,-0.3 1.15,24.3 -0.25,1.3 -0.6,1.3 -0.85,1.3 -1.25,1.3 -1.55,1.3 -3.95,2.65 -12.55,-2.15 -0.3,-2.9 -0.35,-1.2 -0.4,-1.1 -2.95,-0.85 -2.55,-1.5 -2.2,-2.2 -0.95,-1.35 -6,-12.9 -6.25,-7.3 -4.2,-8.4 -5.2,-6.25 -6.3,-5.25 -0.3,-0.55 -0.25,-0.8 0,-0.5 0.25,-0.2 0.3,0 0.6,0.05 3.8,0.7 1.6,0.2 0.3,0 0.35,0.05 0.3,0 0.35,0.05 2.6,0.25 3.75,0.75 5.1,-1.3 5.85,-0.6 2.5,0.15 2.15,0.4 1.9,0.7 1.6,1.05 0.7,0.65 0.1,2.6 0.25,1.35 0.2,0.55 0.2,0.4 0.3,0.35 1.25,-0.3 2.2,-0.2 1.8,0 1.45,0.2 0.65,0.3 0.75,0.2 0.8,0.05 1.8,-0.05 0.9,-0.2 3.05,-1.05 0.7,0.2 0.85,0.05 0.7,-0.05 0.8,-0.2 1.55,-0.85 3.05,-2.35 1.5,-0.7 1.8,-0.55 0.9,-0.05 1.25,0.15 0.45,0.15 6.35,-5.2 6.25,-6.3 24,-11.5 6.3,-1 1.25,-0.7 0.2,-0.25 0.2,-0.15 0.4,-0.5 0.2,-0.6 0.05,-0.6 -0.05,-0.7 -0.2,-0.7 6.8,-5.6 1.55,-1.45 1.8,-2.6 0.3,-1 0.1,-0.5 -0.1,-0.35 -0.85,-0.55 -0.95,-0.25 -1,-0.2 -2.4,0 -2.7,0.45 -1.45,0.55 -2.95,0.65 -2.55,0.05 -1.2,-0.25 -1,-0.35 -1,-0.5 -0.75,-0.65 -11.45,15.7 -2.25,0.3 -1.9,0 -1.65,-0.3 -1.3,-0.6 -1.05,-0.95 -0.4,-0.6 -0.6,-1.4 -0.3,-1.8 0,-0.9 0.8,-2.85 0,-0.4 0.15,-1.1 0,-0.4 0.1,-1.05 -0.25,-3.3 -0.2,-0.7 0,-0.2 -1.4,-6.55 -0.2,-4.95 0.5,-2.6 0.5,-1.05 0,-1 4.2,-4.2 -0.75,-0.35 -0.65,-0.4 -0.55,-0.55 -0.4,-0.6 -0.4,-0.75 -0.4,-1.65 0,-0.95 0.3,-2 -0.05,-1.7 -0.15,-0.8 -0.3,-0.65 -0.45,-0.65 -0.4,-0.45 0,-20.9 -8.9,-20.15 -3.3,-5.55 -1.35,-1.65 -0.6,-0.6 -0.45,-0.3 -1.1,-4.2 4.2,0 1.35,0.5 0.5,0.05 0.1,-0.05 0.2,0 0.35,-0.15 0.1,-0.1 0,-0.05 0.2,0 0.35,-0.2 24.05,4.2 17.75,-12.5 4.2,-2.15 1.5,0 2.55,0.4 2.1,0.8 0.85,0.55 0.75,0.65 0.65,0.75 2.6,-0.3 0.85,-0.3 0.35,-0.25 0.35,-0.15 1.3,1.65 0.55,0.9 0.45,1.05 0.6,2.25 0.25,2.45 -1.05,0.95 -1.45,0.95 -0.45,0.2 -1.35,0.7 -0.6,0.15 -1.65,0.7 -9.4,2.1 -3.95,0.6 -0.2,0.25 -0.2,0.4 -0.25,0.25 -0.15,0.4 -0.55,0.35 -0.1,0.15 -0.65,0.5 -0.7,0.15 -0.2,0.1 -0.95,0.3 -0.6,0.1 -0.5,0.1 -1.2,0.05 -2.05,-0.3 -3.45,-0.1 -2.55,0.3 -1.05,0.3 -0.8,0.35 -0.55,0.5 0.35,10.35 1.4,7.85 1.4,3.75 0.65,0 1.15,0.25 0.5,0.25 0.3,0.2 0.3,0.45 0.15,0.4 0.05,0.55 0.55,1.2 0.75,0.85 0.35,0.15 0.5,0.1 0.45,-0.1 0.55,-0.15 1.9,-0.35 0.4,-0.25 0.45,-0.15 0.85,-0.55 1.4,-1.65 0.15,-0.3 0.5,-0.75 0.6,-1.2 0.55,-0.75 1.15,-1.1 1.3,-0.5 0.7,-0.05 0.75,0.05 0.8,0.25 1.85,1.15 0.35,0.15 0.05,0 0.35,0.15 0.35,0.05 0.2,0 0.2,0.05 0.25,-0.05 0.1,-0.05 0.2,0 0.25,-0.15 0.3,-0.15 0,-0.15 0.05,0 0.35,-0.35 0.35,-0.65 0.3,0.7 0.4,0.7 0.45,0.6 1.3,1.05 0.85,0.4 1.95,0.7 1.15,0.25 1.95,0.75 0.8,0.55 0.5,0.55 0.5,0.65 0.25,0.65 0.1,0.8 -0.65,0.95 -0.25,0.2 -0.5,0.7 -0.95,0.75 -0.55,0.35 -0.1,0 -0.45,0.4 -1.25,0.6 -1.45,0.55 -3.3,0.75 -10.45,1.05 -8.35,1 -1,-2.05 -1,0.3 -0.9,0.6 -0.75,0.7 -1.05,2.1 -0.45,2.9 -0.05,1.8 0.7,0 1.4,0.35 0.75,0.4 1.2,0.95 1.15,1.4 0.2,0.65 0.4,0.6 0.4,0.4 0.5,0.45 0.55,0.15 0.65,0.05 0.65,-0.05 0.8,-0.15 1.1,2.95 2.05,3.85 1.65,2.25 2.85,2.85 2.1,1.55 2.3,1.2 2.6,1 0.5,-0.5 0.5,-0.4 1.05,-0.65 1.1,-0.45 1.05,-0.1 5.25,0 2.05,2.1 14.65,-6.25 22.7,-3.6 0.75,-0.2 1.6,-0.35 0.9,0.65 0.9,0.45 0.35,0.1 0.35,0.2 0.15,0 0.15,0.05 0.35,0.05 0,-0.05 0.15,0 0.25,-0.05 0.05,-0.1 0.15,-0.1 0.15,-0.1 0.05,-0.25 0.15,-0.2 0.05,-0.4 0,-0.15 0.05,-0.1 0.85,0.65 1.05,0.65 2.75,1 3.55,0.55 4.35,0.25 0.2,-0.35 0.25,-0.35 0.4,-1 0.1,-0.65 0.25,-0.7 0.35,-1.65 0.2,-2.9 0.05,-0.25 0.3,-6.8 -0.7,-0.85 -0.45,-0.95 -0.1,-0.55 0,-1.05 0.2,-0.55 0.1,-0.65 0.45,-1.3 1.9,-2.8 0.7,-0.7 -1.15,-3.3 -1.25,-2.5 -0.7,-1 -0.65,-0.7 -0.8,-0.55 -0.7,-0.3 -3.55,1.9 -0.15,0.2 -0.3,0.05 -5.55,2.4 -0.55,0.1 -1.4,0.55 -3.95,1 -7.85,0.7 -0.45,0.1 -9.1,-0.8 -0.4,0 -2.85,-0.45 -4.65,-1.6 0,-7.3 9.45,-1.05 9.35,-3.1 3.1,1.55 3.15,0.5 1.1,-4.2 1.55,0.2 0.85,0.2 2.85,1.35 4,2.7 1.95,1 1.7,0.6 0.85,0.15 0.4,0 0.45,0.1 0.05,0.7 0.1,0.3 0.15,0.35 0.4,0.5 0.6,0.5 1.6,0.6 1.05,0.15 1.3,0.05 0.2,-0.8 0.25,-0.65 0.1,-0.65 0.15,-0.55 0.1,-0.5 0.2,-1.05 -0.3,-0.8 -0.05,-0.7 0.05,-1.35 0.2,-0.65 0.3,-0.6 0.9,-1.15 -0.65,-4.85 -0.1,-5.45 0.75,-4.5 1.1,-2.6 1,-1.4 -3.2,-8.3 -7.85,1.4 -3.4,1.05 -1.9,1.05 -0.4,0.6 -0.6,0 -1.15,0.35 -1.3,0.85 -1.5,1.25 -0.7,0.75 -0.6,0.9 -0.1,0.05 -0.45,0.75 -0.35,0.3 -0.15,0.1 -0.15,0.2 -0.55,0.55 -0.7,0.2 -0.4,0.1 -0.25,0.1 -0.8,0 -0.7,-0.1 -1.65,0.65 -1.55,0.05 -0.8,-0.25 -1.55,-0.9 -0.7,-0.65 -2.95,-3.4 -1.25,-1.15 -1.05,-0.7 -0.9,-2.05 -0.45,-1.85 -0.05,-1.8 0.05,-0.85 0.3,-0.75 9.45,0 1.2,-0.05 0.55,-0.15 0.6,-0.05 2.05,-0.6 0.85,-0.45 0.35,-0.3 0.4,-0.25 0.3,-0.35 0.35,-0.3 0.3,-0.35 0.35,-0.3 11.5,-1 9.4,-5.25 0.25,-0.5 0.55,-0.3 0.65,-0.2 0.9,-0.05 0.95,0.05 2.45,0.5 1.55,0.5 0.1,0.25 0.35,0.35 1.6,0.95 6.3,2.65 17.9,13.4 1.1,0.95"
         inkscape:connector-curvature="0"
         style="fill:#1a1a1a;stroke:none" />
    </g>
  </g>
</svg>
