<svg xmlns="http://www.w3.org/2000/svg" viewBox="0 0 599.99998 399.99999" height="426.667" width="640"><path fill="#f2f2f2" stroke="#fff" stroke-width="1.527" d="M.764.763h198.473v198.473H.764zM.764 200.763h198.473v198.473H.764zM200.764.763h198.473v198.473H200.764zM200.764 200.763h198.473v198.473H200.764zM400.764.763h198.473v198.473H400.764zM400.764 200.763h198.473v198.473H400.764z"/><text y="163.526" x="-158.268" style="line-height:125%" font-weight="400" font-size="40" font-family="sans-serif" letter-spacing="0" word-spacing="0" transform="translate(-72.047 -326.18)"/><g fill="#1a1a1a"><path d="M100.89 113.2l2.88-.617 6.356-2.492.662.207h.092l.046.023 1.554.48.434.09h.092l.64.138h.137l.16.023.023.687-.046.64-.183.594-.137.276-.092.068v.07l-.045.16-.435.502-.502.457-2.24 1.303-1.28 1.028-.8 1.074-.275.572-.16.548-.02.618-.46.137-.364.228-.252.298-.228.595-.023.228.023.55.183.937.136.39.25.16.275.32.55 1.05 1.326 3.726-.343.114-.297.183-.252.205-.365.595-.16.777v.503l.09.845h-.023v.412l-.046.183-.02.228-.39.64-.16.137-.137.16-.297.275-.275.09h-.227l-.07.024-.64-.023-.776-.227-.868-.343h-.48l-.87.09-.71.23-.57.365-.23.252-.936-.206-2.4-.25-.89-.343-.39-.252-.297-.274-.297-.342-.39-.754-.136-.434-3.177-3.612-1.874-2.697-1.67-3.61-.73-2.652-.183-1.782-1.646-3.338-.114-.434-.023-.434.07-.343.136-.366.274-.296.366-.297.457-.206h.663l1.28.16 1.074.39.457.228.823.663 6.697.938 2.697-.228M141.897 106.274h.228l.96-.137 2.103-.046 4.8.413 8.64 1.943 5.03 1.645 6.947 3.796 1.28 1.142.48.663.343.687.274.71.16.753.07.846.936 2.88v3.36l-3.04 1.874-.983.983-.274.48h-8.593l-4.526-3.086-5.485-4.663-2.514-2.56-5.576-7.154-1.966-3.086v-.365l.115-.527.205-.39.39-.16"/><path d="M76.114 134.617l.07.16.022.183 5.257 4.663 5.806 3.93 7.587 3.795 5.714 2.4 11.453 3.84 5.69.777 5.99.823h.137l3.108.412h.183l2.47.297h.183l.16.045h.205l.07.023 1.416.48 9.074-.937.252-4.434-.16-3.612-.23-1.53-.32-1.304-.433-1.12-.55-.937-.48-2.353.024-.732.23-1.188.228-.48.32.137.32.206.275.25.274.344.228.366.503 1.554.32 1.234.23.48.296.435.274.297.39.25.41.138.48.046 3.657 3.726 3.497 2.697 1.6.937.39.16.09.023 1.12.503 1.532.388h.25l.116.023 1.12.115 5.394 1.12.548.23.206.136.206.16.32.412.068.183.137.48.022.297-.045.595-.16.708.297.206.205.298.137.297.068.366-.068.344-.138.434-.503.914-.023.046v.572l-.092.662-.32 1.235-.548 1.21-.686 1.167-.73.8-.093.045-.16.25-1.12 1.075-2.148 1.51-.32.16-.07.09-.387.274-7.795 2.24-1.028.182-2.195.48-.662.092-.183.045-2.31.342-.204.07-1.692.205h-.25l-6.79.548-3.633.07-4.8-.138-1.326-.115-.25-.068-.32-.137-9.097-1.92-5.737-.96-15.292-6.195-1.325-.73-.824-.23h-.23l-.89-.297-.663-.32-.526-.41-.183-.207-.137-.206-4.297-2.377-1.394-1.28-1.212-.8-.73-.32L69.53 145.45l-2.4-4.296-2.857-4.297-2.4-4.8-.96-5.714-2.4-5.257.022-.732.183-.663.252-.662.823-1.188 1.257-1.074.823-.458 4.297 2.858 2.857 3.84.342.914.343.663.274.343.502.914.09.25.024.23v.183l-.046.16-.09.16 5.37 7.245.206.457.068.07v.022M34.218 125.017l.41.366.595.823 1.806 5.394.525.845.434 1.098.57 3.062.138 4.092-.732 17.668-2.377 3.337-.16.138-.138.16-.23.16-.067.09-.092.024-.09.046-.16.09-.39.092-.937-.022-.663-.183-.068-.023h-.07l-.273-.092-.617-.48-.23-.274-.136-.206-.092-.274-.023-.206.023-.25.09-.207-.707-.777-1.782-2.33-1.372-2.584-1.188-3.794-.366-3.086.07-3.314.5-3.543.916-3.772 1.897-5.394 3.474-7.267.776.228.732.367M75.726 89.063v-14.33h-1.92l-4.274.96-4.8 1.44-.137.456-.16 1.073-.046.594.227 4.115.115.8.96 4.41 4.777.984 5.256-.503m42.537-44.434l.457-7.635h-11.954l-11.91 1.417.458 1.92 1.075.617.456.365.845.8.94 1.44.364 1.005.23 1.19v1.965L97.713 58l5.257-1.44 9.556 3.84-1.326 2.972-.572.868-.274.252-.228.205-.206.755-.07.16-.067.183-.07.16-.045.182-.297.412-.09.16-.137.113-.115.137-.137.092-.09.137-.457.25-.137.115-.183.045-.183.092-.183.045-.16.092-.206.022-.204.045-.206.023-.183.07-7.063.525-.388.09-.732.32-.708.595-.96 1.372-.96 1.85-1.257 3.384-.276 1.006h-.023v.182l-.067.206-.07.046-.067.16-.137.206-.46.32-.16.068h-.09v.023l-.046.046-.297.16-.25.273-.138.434-.093 1.212.594.364.32.366.367.663.23 1.097-.573 5.143.252.297.32.23.343.136.41.068.39-.068.524-.137 1.097-.527.436-.32.617-.297.228-.023.39.023.343.09.32.23.297.32.274.457 1.28-.137 2.057-.343.23.57.137.16.206.093h.183l.205-.023.46-.32.34-.343.64-.434.32-.092.276-.022h.137l.16.068.228.114.276.23.228.045.252.182.503.73 4.364-11.565 1.097-4.32.298-2.65-.045-2.492 1.463-5.235 3.337-18.17m23.2-4.367l.457.892.32.937.25 1.554-.09 1.67-.343 1.804-3.27 9.44-2.856 10.537-2.856 4.778-1.92 5.257-.023 2.17-.456 2.332-.96 2.446-5.737 11.2-1.92 2.88-2.857 1.897-7.634 5.737-.96.32-.686.343-.252.274-.708.32-.617.047-.297-.114-.275-.16-.273-.252-.25-.296-.48-8.114-12.024-.343-2.15.092-4.456.707v-.457l-7.77 1.463-7.59 2.194-1.37.64-6.24 2.034-1.35.596-1.097.594-.914.594-.64.617-.25.32h-2.88l-1.19-.66-1.554-1.327-.914-1.03-.846-1.187-1.692-3.635-.502-1.69-1.898-11.017V80.47l-.96-6.698.503-.48L48 65.177V52.743l-.73-1.325-.207-.823-.023-.71-.228-1.21-.32-.663-.183-.297-.23-.206.252-1.692-.092-.663-.16-.526v-3.36l2.4-4.755.32-.252.366-.182 1.03-.388.662-.07.64.047.342.09.64.252.298.16.96.823 4.777 3.337 4.32 6.697V58l-.138.503-.274 1.874v.435l.16 1.714.114.297.252.48.342.434.343.298.41.25.412.16.48.115 1.03-.023 1.165-.297 3.337-.503 4.776-1.897 1.21-.64.436-.388.365-.435.23-.525.022-.16.136-.39.023-.57.022-.046-.023-.114-.024-.572.343-.89.136-.573v-.228l.023-.07.067-.297v-.526l.023-.16-.068-1.622-.046-.457-.137-2.995.25-1.303.07-.297.41-.685.343-.39-.96-4.32-6.103.824-2.263-.046-1.668-.297-4.778-2.858-3.795-3.337.983-.732 2.446-1.188 3.77-1.19 17.144-3.13 21.99-.457h12.433l1.988-1.806.413-.25 1.554-.824 1.12-.366.366-.07.754-.02.594-.116 1.258.07 1.303.342.687.297 1.417.846 4.777 2.355 3.567 5.44 1.783 2.057.663.64.685.48.275.41"/></g><g fill="#1a1a1a"><path d="M333.805 73.886l1.12-.434.183-.115.16-.045.23-.115 5.85-1.21 1.052-.39 1.6-.822.57-.435.435-.023v-.022h.412l.503-.092h.205l.252-.068.16-.092h.09l.664-.32.572-.114h.48l.366.113.16.137.343-.137.847-.114h.96l1.074.113.595.137.686-.023.047-.045 1.143-.046.114-.023h.388l.23-.068.616-.07.457-.16.16-.022 3.337.937 3.36 1.92.412-.137.89-.114.847.022.778.16.73.297.344.227.64.503.823.983.274.434 1.097.046.594.114.458.16.23.137.273.23.092.16.092.205.045.387-.023.457.022.71-.115.708-.228.685-.412.755-.57.708-.184.16-.502.572-1.85 1.462h-18.15l-.206-.137-.25-.09-.298-.047h-.686l-.846.114L344 83.212l-2.286.96 1.92 5.737 1.417 5.256v22.948l.48 10.034.092.023.138.138.16.206.594 1.234.457 1.257-1.92 2.858-.96 3.337.32 1.76.024 1.463-.092.594-.137.388-.023.183-.137.206-.114.25-.296.413-.25.046-.14.068-.067.138-.023.252-.41 2.08v.16l-1.167 5.257-.046.045-.845 2.195-.045.023-.092.16-.32.548-.434.503-1.44 2.995-.71.87-.707.456-3.337 3.818-1.92 3.817-.23.137-.387.39-.252.593-.09.777v.503l-.092.64-.16.55-.32.387-.388.32-.252.092h-.25l-.047.023-.662-.023-.777-.206-1.347-.55-.48-.044-.48.045-.457.182-4.8-3.337-.48-6.194-3.338-5.76.07-.365-.047-.32-.09-.343-.206-.297-.297-.297-.343-.25-1.006-.527h-1.417l-8.113-7.153 1.303-.617.846-.23.777-.113h.41l2.858.96h.253l1.44.343 1.645.617 1.03-.32.182-.115.228-.09.343-.207.253-.274.183-.273.114-.32.046-.32.25.41.32.367.755.526.413.137.503.068 1.12-.068.914.045 2.446.435 3.634-5.51.525-1.187.206-1.19-.067-1.187.937-.48-.137-.48-.115-.87v-.708l.115-.594.137-.205.343-.914.137-.776-.137-.663-.16-.296-.183-.23.503-.867.388-.87.207-.89.09-.846-.022-.502-.274-1.325-.616-1.417-.274-.435 1.463-.96-.503-8.136-.343-2.286-.023-2.01.07-.96.433-1.67.366-.73-.526-.984-.23-.754-.296-1.737v-3.11l.16-3.04-.227-2.08-.503-1.76-1.143-1.942-.434-1.004-.07-.412-.022-.41.047-.344.137-.32.206-.25-1.76-1.007-.8-.343-1.28-.366-.297-.045-.732.113-.227.09-.16.14h-4.777l-1.35.593-.342.206-.937.457-.23.16h-.387l-.8.113-.823.23-.89.387-.436.252-5.05 1.005-1.67.457-.296.115-.228.067-.206.092-.137.067-.07.092-7.153-1.44.07-.39v-.366l-.207-.708-.23-.39-.662-.684-.387-.32 1.417-4.778 5.714-.502.343.068h.23l.113.023.137-.046.16-.045.32-.115.274-.25.047-.093.092-.045.16-.138.524-.778.343-.25.64-.298.594-.137.527.067.274.137 3.36-.457.55-.25 1.05-.207h.984l.434.07.39.136.41.25.138-.387.274-.344.32-.32.457-.297 1.143-.573 1.508-.48 6.195-.503 1.28-.617.708-.205.64-.115h.253l1.165-.137 1.692-.343 4.045-1.21M352.068 47.852l-.023.48-.297.503-3.337 2.354-4.32 1.44-7.633 1.92h-.16l-1.234.182-13.417 2.697-.96-.48-2.515.547-1.004.046-.435-.046-.342-.068h-14.354l-4.754.456-.366-.274-.297-.297-.434-.64-.183-.39-.16-.822v-.434l.023-.16.068-.138.024-.16.046-.137.09-.732-.044-.045v-.412l-.092-.754-.023-.046v-.206l-.09-.548 2.857-.96 2.88-1.44.71.114.707-.023.686-.205.754-.343.343-.252.64-.388.32-.092.274-.137.527-.114h.274l5.258.983 5.258-.503 3.36-1.897 4.777-.503.205-.137.937-.297.298-.023h.045l.16.09.206.024h.183l.228-.024.16-.09.16-.138.298-.343 1.188-.137.207-.07.09-.068.116-.022.16-.115.16-.068.32-.252.57-.297.48-.114.344.068.16.138.32-.046.183-.046v-.023h.183l.64-.274.274-.207.046-.09.25-.16.16-.253.07-.045.594-.663.663-.55.594-.387.57-.16h.253l9.554.983.024.182.09.183.138.16.206.183.594.16 1.395.07.89.16.367.204.228.183.206.23.092.296.068.365-.228.32-.183.48.023.48.09.274.184.296.25.274.64.48.23.252.183.206.09.274M279.772 29.955l.822.548 2.675 2.72 5.393 6.995.846.457 1.027.823.457.525.183.32.114.275.116.64.045.342-.136.663-.25.732 1.44 1.92.182.32.137.32.137.548-.07.206-.044.09-.023.092-.137.16-.183.183-3.84 4.274-.16.32-.16.25-.023.115-.48.64-.686.617-.594.41-.183.16-1.005.504-.87.32-.25.137-2.766.846-.023-.093-.07-.045-.273-.115-.228-.045-.526-.092h-.297l-.413-.045-3.885-.046-7.657 4.776-.755-.41-.708-.23-.686-.023-.39.023-.32.137-.18.55-.093.113-.16.366-.114.09-.23.32-.434.344-1.143.457-.686.114h-.388l-.024.023-.39.023-6.673 7.177-.137.183-.297.96-.024.297-2.08-.457-.183-.023h-.137l-.388.07-.298.022-.297-.023-.228-.07-.252-.205-.183-.183-.16-.275-.114-.297v-7.657l1.92-3.337.137-.594.39-1.03.593-.8.777-.685.503-.25.526-.96.16-.252.503-1.372.502-.777.206-.183.457-.274.412-1.44 1.37-2.607 2.058-2.377 3.452-2.674.845-.457.23-.663.365-.55.388-.433.457-.275.39-.96.593-.686 2.835-1.692.868-.64 1.12-.618.617-.16h.274l2.858-3.84.73-1.074.367-.457.844-.732.915-.457.48-.137.296.07.366.182M248.07 104.65v-.136l-.024-.274 5.257-4.297 4.32-4.777 5.714-7.634.046-.023h.092l.16-.047.297-.09.457-.46.045-.204.09-.16.092-.32.046-.07v-.137l.07-.366.044-.525.23-.366.548-.526.594-.388.64-.16h.387L277.692 70.8l5.714 4.297.183-.09.616-.047.343.023.113.023.183.09.183.138.067.07.092.136.067.274.07.343-.115.32-.023.366.022.297.114.32.206.412.25.25 1.327 1.098.593.617.183.275.023.045.044.092.092.16.137.524 1.463 1.44.685.938.23.708.023.252-.252.25-.136.39-.068.457v1.187l.068.755.39 1.737.022.342-.023.57-.046.298-.228.434-.32.39-.504.205-.183.02-.114.07-.344.07-.754.067-.846-.068-3.43 2.376-2.56 2.377-1.393 1.783-.914 1.783-.32 1.233.982.343.822.457.686.526.503.57.297.617.183.71.046.342-.184 1.21-.663 1.783-.754 2.72-.116.64v.297l-.022.228.045.366.092.16-.253.434-.365.892-.23.846-.136 1.714-.046.25-.023.276-.09.205-.047.253-.046.068-.09.32-.207.298-.09.07-.16.228-.16.09-.138.115-.32.184-.253.48-.297 1.19-.09 1.44.204 3.04v.364l.023.092v.868l-.183 1.463-.09.07v.045l-.047.16-.25.572-.07.09v.047l-.045.16-.39.41v.047l-.41.435-.686 7.818-.206 6.445.274 2.514.138.435-.252.503-.114.685-.092 2.857.458 4.07v.41l.022.16-.045 1.646-.184 1.006-.092.206-.182.73-.435.824-.045.046-.206.365-.252.412-.342.343-.183.16-.16.205-.756.663-3.337-1.92-.502-.206-.412-.114-.434-.023-.71.252-.594.594-.25.458v.48l-4.116-4.503-.228-.297-.297-.48-.07-.183-.045-.16v-.09l-1.44-4.32-2.857-4.298v-2.4l.663-2.332.274-.525 2.857-4.32 1.92-4.755 1.92-11.954 1.418-5.256-.115-1.326-.137-.57-.206-.48-.228-.39-.48-.937-.207-.57-.046-.503-.274-.114-.137-.023-.114.023h-.16l-.137.045-.572.366-.503.457-1.028 1.464-.16.114-.07.07-.067.068-.252.25-.32.138-.183.023-.114.046-.114-.023h-.252l-.32-.046-.16.16-.023.092-.48.777-.777.96-1.805 1.714-2.24 1.394-2.63 1.12-3.84 4.298-.48-.114-.41.046-.366.09-.595.504-.23.366-.182.457-.137.57-.8.32-1.394.8-3.566 2.88-3.77 3.658h-.96l-1.624.16-1.303.39-.55.228-.457.297-.388.365-.457-.64-.366-.342-.183-.115-.16-.023-.138.023-.114.115-1.44.982-.206-.388-.09-.39v-.364l.387-.71.776-.73.572-.32 1.783-1.783.458-.823.114-.39.046-.342 3.794-5.234 6.24-10.993 3.337-3.84 1.21-1.006.618-.8v-.044l.205-.206.366-1.097.022-.572-.023-.16"/></g><g fill="#1a1a1a"><path d="M496.33 125.566l.39-.412.39-.25.64.227.273.138.48.39.183.205.32.457 1.92 1.92.183.868v.07l.16.707.09.64v.138l.046.434.205.434.116.413.114.502v.092l.023.09-.046.276-.09.16v.09l-.047.024-.07.16-.204.16.114 2.857-.297 5.19-.434 2.307-.3 1.052-.113.252-.228.8-.847 1.92-.39.64-.113.25-.526.824-.548.8-.503.55-.114.227-.78.07-.364-.07-.32-.137-.39-.25-.685-.64-.34-.413-.527-.89-.572-.664-.616-.525-.685-.32-.184-2.902.137-6.218.297-2.102.434-1.852.595-1.622.707-1.394.412-.617 1.027-3.086.71-1.416.364-.548M565.657 119.85l2.057.87 2.308 1.394 2.103 1.806 2.377 5.737-2.377 5.28-.274.023-.708.137-.983.046-.503-.023-.755-.115-.09-.022h-.16l-.48-.092-1.6-.502-2.08-1.05-7.658-5.098-2.012-.915-1.714-1.257-.754-.777-.983-1.324-.548-.96-.205-.503 1.6-2.15.983-.96.617-.48.228-.113.39-.137 1.416-.137h2.698l3.75.41 3.36.915M554.914 143.53l.57 3.84.138.504.458.937.297.412.41.435.96.777.573.32 2.057.914 3.61.914 2.355.503 1.235.48 1.005.64.412.412.297.365.275.48.183.458.137.525.046 1.12-.205 1.257-.297.55-.183.182v.046l-.16.274-.434.434h-.045l-.434.412-.16.045h-.068l-.068.07-.915.48-.732.182-.23.023-.547.16-4.32 1.92-.32-.092-.32-.023-1.622.114-.503.068-2.148.57-3.2 1.28-8.892-.044-5.69-.64-3.338-.71-5.006-1.827-2.353-1.372-1.486-1.165-.96-.298-1.782-.822-.845-.55-1.623-1.37-4.96-5.692-2.15-1.897-.593-.365.023-.228v-.183h.023l.023-.366-.07-.343v-.068l-.136-.39-.046-.067-.457-.823-.206-.23-.593-.64-5.257-12.41-.526-2.857-.114-1.463.046-1.052.137-.388.228-.96.138-.25.298-.436.57-.387.504-.115.914.046.32.07 1.097.456.39.206 2.24 1.874.937 1.417-.114.434.068.48.138.504.595.96 1.005.983.71.48.616.343.754.594.206.206.32.503.16.48.07.548-.047.527-.16.617.32.114.343.183.64.527.548.663.526.89.274.824.183.32.23.297.25.184.298.16.298.09.388.047 6.194 5.738 5.19 2.903 5.553 1.99 5.898 1.097 6.31.228.936-.983-.48-6.194.983-5.257 1.897 2.88"/><path d="M541.657 121.703l-.48.548-.366.207-.09.046-.252.16-.845.32-.343.205-.55.458-.365.502-.09.252-.07.503-.434.09-.685.39-.525.57-.412.71-.228.89-.092 1.052.275 2.652.274 1.326v.182l.023.046.114.664v.23l.023.113-.023.114v.138l-.07.206-.044.07-.023.044-.07.023h-.022v.024l-4.068 1.67-.823.204-.686.092-1.12-.046-1.257-.87-2.033-1.736-1.44-1.783-.71-1.417-.136-.457-.16-.913-1.347-5.006-.366-2.513-.046-.55.116-1.28.09-.387.138-.297.16-.137.297-.092.413-.09 3.885-.16 1.19.844.227.115.96.868.48.32.71.23.273.023H542l-.343.64M509.748 81.612l-.388-.55-.206-.593-.114-.64v-.32h-1.92l.983 9.53h.937l.96-7.177-.252-.25m11.635-5.213l-.183.046h-.183v.023l-.16.067-.823.07-.366.113-.274.16-.206.183-.137.25-.067.253-.046.297.046.297.183.594.09.503.298 8.366.48.16.48.046.48-.047.48-.16 1.92-.983.457-10.97h-1.416l-.183.182-.09.09-.092.115-.502.32h-.183v.023m12.068-1.234l-.136 1.097-.754 2.743-3.452 7.634 8.115-.457v-2.4l1.92-4.777.982-5.257-.502-.48-6.195.982.023.914m14.035-27.474h.755l.685.114.983.412.594.434.572.526.503.685 1.44 4.32-.503.937-23.886 2.4-9.074 10.035v.937l7.886-.23 13.143-1.69.205-.366.297-.32.64-.57.8-.504.435-.23.937-.342 1.074-.274 3.27-.25 3.29 2.17 2.767 2.47.205.273.023.045.16.25.23.55 1.553 2.285.663 1.646.16.57v.16l.024.07.068.274.046 1.03-.114 1.027-.07.16v.07l-.044.273-.183.503-.092.23-.09.273-4.64 8.868-.595.87-.183.342-3.955 5.234-4 4.777-3.84 1.44-3.817.457-1.44-5.234-4.137-.32-7.565.914-16.96 5.12-2.697 1.715-.343.204-.297.206-.297.137-.253.16q-.114.046-.25.114l-.184.14-.183.044-.114.092-.115.023-.044.02-.023-.273-.046-.137-.046-.09-.25-.573-.23-.32-.82-.983-.664-.48-.617-.754-.07-.23-.09-.456-1.92-18.148-1.213-.96-1.37-1.463-.596-.96-.34-.937-.116-.96.115-.983.34-.96.3-.434.73-.436 3.77-1.805 1.76-.595.64-.115h.55l.206.092v.023l.045.068.184.092.297.09.413.07h.25l.938.09 2.104.07.16.045h.412l.16.023.114-.023h.41l.527-.09.983-.367.754-.526.137-.045.367-.412.023-.068.388-.39.16-.273.023-.07.16-.16.367-.548 1.143-2.857.457-4.298-6.674 1.92-5.074-2.262-2.653-1.578-2.01-1.577-.756-.823.024-.708.343-1.258.71-1.074 1.073-.892.71-.343 15.29-.48.297-.16.137-.114.16-.092.114-.138.115-.09.228-.275.047-.183.09-.16.047-.206.092-.16.022-.206.046-.205.023-.412-.137-.388-.092-.937.046-.572.046-.274.137-.206.09-.228.116-.183.068-.206.116-.207.32-.914.022-.275.07-.23.16-1.713-.047-.092-.044-1.257-.046-.365-.023-.115v-.228l-.07-.39-.02-.113v-.23l-.504-2.353v-.07l-.732-2.97v-1.83l.07-.57.388-1.075.526-1.006.823-.892.96-.777.617-.365.526-.137 1.966-.252 2.125.092 1.44.434.64.366.32.388.733.732.388.297.32.183.367.16.754.137 2.538 3.588.892 1.806.617 1.873.343 1.852.068 1.897-.183 1.874-.457 1.92-.457 3.36-.09.183-.023.205.023.41.09.32.07.138.137.16.274.183.367.16 1.028.137 5.075-.548.89-.183 2.195-.71 6.195-1.44.388-.136.777-.114"/><path d="M457.91 111.028l-1.533.732-11.84 9.303h.48l8.595-2.4 5.257-.937.387-.138.755-.137h.685l.618.116.525.228.457.39.23.227.342.55.296.663-.023.274-.023.07v.227l-.137.55-.09.113-.16.39-.16.25-.138.274-.39.39v.068l-.502.435-.16.068-.137.116-.937.617-4.778 2.377-.07.274-.045.503.07.274.136.435.092.183.182.206.32.297.458.298 1.234.39 1.485.32.594.227.96.595.365.365.228.412.206.48.022.206v.25l-.07.504-.456 1.05-.937 1.12-2.127 1.76-1.028 1.167-.595 1.19-.137.593-.046.594.092.664 1.553-.73 1.806-1.19.32-.343.73-.547.686-.39.39-.068.753-.09.136-.48.206-.435.297-.435.845-.685 1.165-.595 1.44-.525.686-.297.937-.64.274-.39.115-.205.022-.114.046-.07.07-.433v-.227l-.047-.206-.96-24.388h-1.897l-8.137 4.318m-6.72-9.12V102l.25.89.16.344.115.137 5.257-.456 5.257-1.92 1.073-.25 1.966-.23h.296l2.377-1.44v-7.177l-.457-7.154-.343.09-.228.16-.138.207-.022.23.022.25.138.297.228.297.343.366-.343.594-.526.595-.708.593-.824.594-2.286 1.19-2.97 1.233-5.258 1.44-4.777 1.92 1.028 5.577.366 1.532m.753-26.88l-.206.89-.022 5.006h6.194l5.256-.48.846.937.594.983h3.337V71.35l-3.177-.047-3.2.412-7.703 1.69-1.074.55-.573.594-.274.48m10.63-24.8h-1.03l-.388.09-.412.138-.343.205-.343.275-.228.342-8.115.503-.595.23-.434.296-.32.365-.388.8v.503l.09.525 1.647 4.434.685.96.23.686.136.983.366 1.21 1.53-.136 1.807-.343 6.513.778.23.045 2.284.275h.115l1.188.16.23.068h.16l.433.07h.274l.046.022V57.04l-.457-6.217-4.914-.594m36.274-6.195v.183l.023.228v.366l-.093.32-.16.32-.09.068-.16.23-.298.273-.96.617-.253.23-.25.16-.344.296-.114.16-1.26.39-.296.182-.525.388-.184.23-.137.25h-4.78l-4.776.457-.342.366-.275.456-.205.526-.252 1.188v1.418l.114.845v5.257l-.022.046v.25l-.023.047v.252l-.093.457-.045.045h-.023v.092l-.07.136-.09.07h-.093v.02l.023.413.092.41.137.32.067.137.137.16v5.258l-.937 3.337.48 5.714-.48 5.76V92.88l.937 10.49v6.698l-.937 3.818v3.84l.823 5.988.137 9.35.457 18.1-3.337 13.853.07.937-.207.96-.503.96-.8.983-3.337 2.857-1.348.297-1.166.024-.526-.115-.457-.16-.457-.23-.366-.296-.64-.915-1.463-2.606-.64-1.692-.457-2.423.023-1.578.32-1.508.57-1.486.413-.686.297-.914.25-1.943v-.32l.047-.09.046-.413.023-1.622.022-.206-.023-1.074-.024-.16v-.138l-.64-9.394.297-1.988.023-1.6-.114-.686-.16-.57-.252-.48-.297-.39-4.297 2.857-.503.024-.41.137-.413.23-.708.685-.595 1.098-.228.685-.298.55-.297.433-.366.32-.367.23-.457.114-.503.07-.25-.07-.07-.023h-.183l-.16-.045-.045-.045h-.092l-.274-.07-.893 1.35-1.85 2.262-4.595 4.39-7.954 6.33-.435.55-.137.228-.64.777-.32.25-.09.093-1.258 1.05-.275.138-.228.16-1.623.914-1.28.572-1.35.525-.044-.046h-.183l-.137-.046-.115-.023-.64-.297-1.348-.8-6.606-5.006-.595-.89-.206-.367-.07-.297-.022-.297.045-.228.138-.182.206-.138.275-.457.183-.205.8-.526.663-.23.64-.09.55-.16.41-.32.32-.412 4.32-1.417 4.274-1.92.32.07h.252l.114.045.046-.046h.25l.32-.07.413-.296.16-.09.525-.55.435-.686.983-.96.48-.274.32-.297.09-.16.047-.022.16-.183.25-.41.207-.504.09-.456.047-.137.09-.48.046-.137.07-.732.044-.777h-.25l-.207.024-1.417-.09-1.074-.276-2.4-.983-.663-.342-3.567-2.15.275-.388.89-.754 3.04-1.393 2.058-.732.823-.434.16-.136.548-.32.57-.526.39-.548.25-.617.115-.663-.045-.663-4.823-1.897-1.166-.617-.984-.71-.754-.662-.55-.707-.32-.663 3.956-2.012.434-.16 1.577-.662.136-.023h.092l.982-.96h-1.92l-.365.09-.343.024-.617-.023-.297-.09-.252-.138-.526-.343-.365.09-.343.024-.32-.023-.297-.09-.572-.39-.48-.57-.297-.87-.32-.686-.41-.502-.39-.32-.137-.755v-2.947l.662-2.95 1.348-3.04 1.463-2.262 2.56-28.41v-5.12l-.663-7.565.183-.503v-.046l.07-.07.227-.66.115-.664v-.686l-.115-.754-.228-.755-1.074-2.422-.435-1.578-.09-1.44.182-1.302.205-.595-5.737-3.817-.548-.228-.412-.275-.205-.205-.206-.457-.137-.595v-.73l.114-.847.456-1.44.23-.274.73-.434 1.646-.64 2.217-.55 7.61-.96 7.132.938h5.257l17.21-2.857h9.554l.343-.252.892-.298 1.073-.137 1.28.07 9.783 2.033 1.92 1.92.32.87M501.52 115.486l-1.234.09-1.166-.022-1.097-.206-1.03-.342-.936-.503-.868-.617-.436-.046-.297-.092-.114-.068-.046-.092-.068-.114v-.068l-.16-.138-.14-.09-.32-.115-.387-.092-.412-.022-.456-.48-.685-.937-.344-.822-.046-.388v-.366l.09-.343.16-.182.436-.25.228-.092 1.052-.48 2.423-.915 28.66-2.856 7.178-1.463 7.155-1.896 4.8 1.44.617.457.525.55.366.526.275.594.046.274.024.96-.16.686-.274.73-1.418 1.418-16.045 1.166-12.526 2.286-1.073.388-.32-.09-.343-.024-1.806.114-3.085.64-4 1.28-2.743.618"/></g><g fill="#1a1a1a"><path d="M113.806 241.292h.228l.183.023.32.068.16.137.046.115.045.137-.64.41-1.005 1.076-.823 1.28-.663 1.53-.503 1.715-.274 1.943-.07 4.55.138 1.324-.182 1.486-.252.777-.708 1.692-1.715 2.765-.456.183-.16.023-.434.183-.343.045-.388.114-.87.16h-.39l-.113.022-4.343.183-.16.022-1.92-4.274-3.108-13.943-.457-3.657-.024-1.394.114-1.144.137-.41.343-.458.41-.366.39-.274.983-.23.548.024.527.114 3.977 1.19 3.337 2.856 3.338 1.417 4.778-1.418M45.258 285.703l1.12-.366 1.28-.25 2.88-.115 2.582.274 10.515-1.44 6.217 1.44 1.737.388.753.298 1.006.57.57.504.503.57.686 1.007-9.075 3.36-.39-.092-2.33.093-1.76.32-5.098 1.577-1.53.297-4.07.412-2.377-.184-1.074-.23-.96-.296-2.034-2.926-1.234-2.514-.16-.594v-.48l.068-.16.366-.39.823-.593.983-.48M40.275 305.2l.434-.366.342.07h.068l.046.022.16.068.55.07.227-.024.183-.046.32-.16.617-.617.23-.114.16-.114.296-.116h.16l2.605.297 6.697-.227 4.068-.55 1.943-.456 4.39-.617 2.97-.023 1.326.16 1.21.274.572.184 5.257.96.616.366.457.434.16.206.137.25.16.527-.023.55-.183.616-.845 1.348-.436.436h-.045l-.413.41-1.028.595-.138.093-1.44.525-.87.183-6.627 1.098-5.19.046-4.16.617-5.28 1.418-2.102.823-7.108-1.164-.823-.252-.71-.343-.547-.433-.275-.274-.434-.572-.32-.64-.114-.342-.16-.777.023-.41.068-.252.206-.48.32-.502.228-.275.182-.32.503-.684 1.372-1.486M60.732 331.28l.023-.092.022-1.028-8.137 1.92-.41.525-.39.435-.434.32-.434.25-.526.093-.25.045h-.138l-.115.023-.548-.113-.16-.046-.046-.022h-.092l-.252-.09-.503 7.176.07 1.463.365 1.69.297.733.183.343.41.594.23.25.525.458.32.206.892-.228 2.468-.25 3.337-.48 1.097-2.63.915-2.697.183-.73.068-.207.594-2.88.435-5.028m18.582-.686l.32 1.83.252 6.33-1.052 2.857-.388.755-.023.138-.09.09-.847 1.555-1.646 2.194-.57.572-.047.09-1.326 1.213-3.085 2.01-7.657 1.898-7.635 2.903-.617.846-.206.206-.205.205-.434.39-1.075.64-5.577 2.49-.48 1.166-.48.732-2.674-2.56-1.097-.617-.32-.068-.686-.092-.275-.16-.23-.183-.41-.548-.435-.732-.548-1.485-.617-2.583-1.326-10.08-1.418-8.114.068-.275.115-.25.045-.275v-.07l.092-.16.023-1.142-.275-1.257-.068-.16v-.045l-.07-.16-.433-.982-.207-.732-.114-.662-.024-.617.252-1.073.25-.457.367-.434.457-.343.617-.71.32-.296 1.165-.686.41-.204.87-.298 2.034-.297 1.142.024 8.25 1.03 4.96-.207.23-.046.823-.09.228-.046.8-.09.777-.184h.137l.892-.16 1.53-.48 1.257-.572.16-.16.092-.045.273-.16.16-.16.07-.023.25-.16 1.052-1.097.16-.137.48-.23.342-.022.252.023.296.137.274.23.275.342 4.777 1.44 3.817 3.337 3.062 4.64.182.57"/><path d="M145.828 238.435l2.857 3.794v5.256l-14.33 15.77.068.436v.41l-.115.344-.16.25-.023.116-.297.25-.365.207-.023.045h-.07l-.387.182-.526.16-.23-.068-.57-.07-.39.046-.844.206-.663.32-2.355 2.057-1.165.867 6.217.458 5.737-1.92 1.19-.64 1.164-.412 1.075-.206.342-.045.686.045.64.092.298.09.32.137 7.177 12.435-2.4 3.794-1.44 3.337-.48.25-.777.733-.594.96-.412 1.188-.114.71-2.4 3.816-2.857 3.84-3.336 3.794-4.32.503-4.777-.503-.183.71v.707l.137.687.298.754.412.71.594.73 1.646 1.464v3.817l-.092.733-.16.823-.73 1.805-1.35 9.898-.32 5.486-.25 13.28.456.594 1.303 1.19 2.88 1.782 7.154 2.97 10.195 3.018 7.177.48 6.697-.48.8-.89.388-.55.07-.16.32-.41 1.507-3.018 1.35-4.16 1.302-5.166.617.206.937.503.344.25v10.538l3.817 4.755.618.48.457.503.16.252.137.25.16.55-.023.548-.183.55-.343.57-2.057 2.56-.892.87-.137.067-.754.777-.412.23-.09.113-1.487 1.052-.16.045-2.057 1.075-2.446.8-2.65.502-4.458.228-.206-.046-1.326-.023-1.21.822-1.67.617-.274.022-.754.16h-.252l-.045.023-.275.07h-.25l-.047.022-.274.045h-.548l-.068.023-1.99.114-2.193-.046-6.193-.755-5.646-1.692-3.45-1.6-3.223-2.057-2.994-2.422-4-4.343-.96-5.257-1.44-4.777-.457-26.284 1.417-6.218v-6.697l.137-.16.16-.136.274-.32.092-.205.114-.207.068-.206.115-.183.023-.274.045-.25.024-.55-.023-.64-.067-.663-6.697.937-.412-.228-.366-.137-.41-.093-.367-.023-.456.023-.89.23-.436.227-3.36 1.44 5.052 6.88.823 1.577.365 1.51.023.73-.044.756-1.898 6.24-4.8 8.594-.137.183-.136.297-.09.183-.093.205-4.273 6.903-3.383 5.12-6.697 6.698-7.634 5.257-.846.457-.32.206-.25.274-.458.366-.413.137-.183-.068-.16-.07-.137-.16-.114-.205 3.84-8.114 4.777-8.594 8.137-17.668 2.834-7.635.48-2.284v-2.24l-.067-.572-.39-1.623-2.17 2.218-.23.298-.48.457-.48.274h-.09l-.16.07-.206.02-1.394-.64-1.19-.89-.547-.594-1.006-1.326-.846-1.6-.663-1.92-.936-4.617-.114-1.303.503-2.49.16-3.064.046-.07-.047-.136-.023-1.714-1.257-11.43.023-3.45.434-2.994.64-1.875.16-.138.777-.228.297-.047 2.035.114 3.427.778.48 1.714 2.057 15.793.846 3.77.39 1.167v.07l.02.044.16.412.07.183.16.227.09.023 11.956-.937.25-.366.298-.228.297-.207.344-.07.343-.022.41.047.436.137.48.206 1.44-.114 1.44-.366h.137l.503.09h.137l1.623.184.114-.023h.41l.116-.02h.388l.984-.116.07-.045.753-.207.754-.32.664-.434.526-.527 1.05-2.057.367-1.052.023-.25 1.417-3.818-.114-.32-.092-.297-.09-.596v-.594l.388-1.188.32-.595.435-.594.594-.594 1.37-2.333.298-.663.298-1.234v-.57l-.046-.458-.71-.252-.616-.137-2.4-.23-.57-.136-.48-.183-1.44.938-9.897 2.72-3.086 1.325-1.35.732-.273-.138-.617-.07-.71.138-.844.297-1.737.96-.572.16-.525.07-3.82-2.858-2.856-3.338 12.892-4.297 4.41-1.098.984-.48.114-.09.137-.047.07-.114.114-.09.297-.32.093-.16 14.81-31.52-.365-1.807-.114-1.555 3.246-1.12.8-.183.32-.114.57-.115h.253l.182-.022.275.046.09.092 6.218 6.697M73.074 246.846l-.228 1.074.023.618.113.617.206.73.57 1.304.183.548.023.114.16.41.09.436v.182l.024.206-.023.183v.16l-.023.045v.09l-.022.16-.275 2.652-.57 1.76-.253.572-.16.25-.137.252-1.05 1.463-.892.868-.983.777 11.725-.48 1.395.115 1.302.25 1.166.412.526.275.914.594.846.754.686.87.548 1.005-3.36 1.988-2.857 1.234-1.28.298-1.12.137-1.03-.07-.867-.227-24.846 2.88-17.005 3.77-5.554.595-2.765-.068-.457-1.646-.846-1.6-.594-.777-1.51-1.487-.89-.708.068-.435.183-.388.273-.412.823-.777 1.12-.754 1.486-.733 1.83-.685 6.147-1.555 27.725-.937 4.297-.983-3.337-2.01L61.19 258l-1.624-1.783-1.67-2.49-2.856-3.84-.594-.48-.89-.984-.596-.96-.182-.48-.115-.503-.023-.41-.457-.344-.228-.206-.16-.228-.343-.572-.457-1.577-.252-3.29.252-.618.708-1.03.457-.41 1.075-.755 1.325-.525 4.8-.983 4.275.983 4.777 1.417 3.36 3.36 2.4 4.274-.48.366-.343.457-.276.456"/></g><g fill="#1a1a1a"><path d="M320.846 335.45l-.32.16-.55.435-.525.55-.204.296-.366.733-.252.8-.228 1.508-.023 1.167 4.297-1.44h7.154l4.457-1.44 2.835-.594 1.143-.115h.96l.777.115.365.137.938-4.297-5.738-1.463-14.72 3.45m19.566-13.164l-.547-1.738-14.79 2.88h-.41l-.777.115-.846.205-3.132 1.67-.8.273-.388.093-.343.023.046.914.41 2.423 3.338-.48 5.76-.458.093-.022.502-.23.16-.16.663-.57 11.017-1.417.16-.435.046-.25.093-.206.022-.57v-.596l-.274-1.462m-25.964-15.475l.594-.136 10.034-.937 9.53-1.44.87.206h.09l.32.068 1.03.16h.114l.435.07.342-.25.64-.367.32-.114.275-.14.57-.113h.253l1.302-.503.435-.114.343-.137 1.577-.297.457-.023.366.023.137.023.16.09 1.028.297.526.206 1.554.983 1.052.89 1.485 1.578 2.47 3.68v7.177l.982 6.676h.457l-.457 15.29-.48 4.778-1.44 4.777-.07.64-.16.55-.342.41-.183.16-.57.367-.527.457-.388.503-.07.25-.09.504 4.777 2.858 3.337 3.817 2.172 3.315.138.274.388.685.07.16.022.045.045.092.07.205-.984 3.337-1.92 2.88-2.148-.503-2.17-.938-1.075-.663-2.697-2.172-7.657-7.657-.046-.274-.07-.16-.022-.046v-.09l-.342-.64-.618-.8-2.674-2.927-.547-.8-.366-.16-.754-.433-.32-.275-1.098-1.097-.32-.434v-.57l.115-.892.205-.594.206-.183.184-.113.25-.023 5.26.937.32-2.17.02-1.646-.113-.686-.16-.548-.227-.39-.16-.16-.138-.113-9.097.457-9.554 1.92v4.777l.07.64-.047.047v.57l-.09.527-.207.388v.092l-.16.16-.046.023-.09.16-.344.32-.457.228-.55.183-.525.732-1.622 1.394-4.526 2.674-.274.252-.183.137-.297.114-1.052.664q-2.674 1.326-5.37 2.628l-3.338 2.903-3.84.937-.96.71-.503.16-.457.067 1.074-2.012.274-.754.092-.32.023-.252 11.473-12.89.183-.252.022-.092.16-.274.046-.274.114-.298.046-.342.114-.39v-.25l.092-.686.137-3.68.023-.16-.48-1.92-.137-.366-.115-.937.046-.57.07-.275.136-.205 1.44-.503V313.85l.457-4.273.137-.594.457-.983.733-.73.983-.46m4.64 6.31l-.092.206-.137.41-.023 4.435 20.55-2.88v-5.256l-.16-.25-.344-.39-.503-.206-.572-.114h-.342l-.32.16-.183.07-.206.022-.274-.023-.915-.23-13.85 3.84-.687-.227-.594-.07h-.526l-.205.047-.16.114-.206.07-.25.273M249.783 289.074l-.228-.548 3.337-1.417 1.326-.253 2.01-.708 3.384.456 3.337-.937 10.033-.48 6.606-.687 2.056.07.89.136 2.378 2.88-4.777 2.856-5.257.96-4.777.457-4.777 1.92-9.097-1.554-2.172-.687-1.875-.89-.228-.207-.39.046h-.32l-.32-.092-.296-.206-.298-.297-.55-.823M253.143 304.07h.23l1.44-.32.524-.207.435-.206h7.634l.25.16.16.046.184.046.39-.093.456-.16 11.314-1.577 2.972-.09 1.325.09 1.715.41 1.028.436 1.303.845 1.006 1.053.022.046.342.57.092.274v.137l.023.16-.024.253-.092.274-.434.55-.41.342-.093.136-.663.41-.342.16-.115.024-.228.16-.756.183-.09.068h-.138l-.777.184-1.03.115-1.12.044-.617-.09H276l-1.577.296-.96.41-.48.367-13.737 2.63-1.67.16-3.13-.07-2.857-.663-1.92-.8-3.475-1.76-3.337-2.4.365-.57.252-.253.89-.616.344-.205.8-.3 1.85-.364 1.738-.07.045-.022 4-.205M342.24 252.938l3.84-.412 3.45-.937 2.515-.435 2.172-.046 1.485.296 1.6.594 1.395.983.754.663 1.304 1.554.823.663.274.16-.48.434-.548.32-.16.138-2.057.89h-.09l-1.304.412-.205.023-3.2.755-.25.022-1.738.39-12.434.936-2.858 4.777.16.07.343.113 1.166.16 4.046.137 4.8.937.548.252.937.685.412.388.594.914.458 1.326.046.23v.182l-.023.205-.182.366-.297.343-.25.113-.275.16-.503.16-.16.07-.228.044-.617.16-.937.16-7.84.366-10.195 1.623-9.21 2.286-3.52.25-.504.092-1.28.366-1.37.754-.503.458-4.777-2.858-4.754-3.337-.092-.48.046-.41.183-.39.708-.594 1.19-.388 9.417-1.098 8.617-1.417v-4.32l-7.177.983H311.2l-.16-.046h-.137l-.48-.09-.55-.115-1.347-.48-.092-.023-.57-.23-3.84-2.377-4.778-3.817.365-.686.46-.525.5-.435.573-.274.617-.183.32-.068 1.12.068.823.183 2.514.137.16-.023h.55l.296-.068.046-.023h.25l.55-.138.387-.183h.07l.433-.184h6.217l1.03-.25 2.787-.253 1.532.115.685.137.64.25v-6.216l.093-.435v-.115l.068-.342.07-1.098.023-.045-.023-.115v-.594l-.23-2.514-2.376-11.45.137-.596.207-.503.23-.388.524-.48.664-.297.526-.115 4.89-.022 9.555 6.218 1.92 3.36.298.914.022.96-.274.937-.525.982v9.577l.96.296 1.052.206 2.263.206"/><path d="M338.445 292.846l1.875-.137 1.12.044.594.115.457.16.367.25.137.16.23.343.32-.572.707-.776.687-.365h.388l.366.067.39.23.16.022h.182l.435-.116.457-.228.548-.412.526-.57 2.012-2.538 1.874-7.177h-5.234l-5.257.982.274 1.394-.046 1.463-.433 1.393-3.132 6.263m-23.702-5.67l-.206-.57-5.257 1.44v7.177h4.297l1.6-.16.55-.206.113-.068.343-.16.09-.16.047-.024.137-.183.137-.39v-.48l-.137-.547-.23-.48-.64-1.577-.09-.596v-.228l-.046-.16v-.137l-.204-1.03-.48-1.348-.023-.115m-15.132-6.445l.207-.07.274-.342.024-.09.046-.093.046-.205 8.594.96 44.937-4.778 1.92-1.44 1.645-.137.64-.137.572-.183h.457l1.03.16 1.645.617 1.143.64 2.514 1.783 2.743 2.515.07 1.188-.253 1.417-1.485 3.59-2.835 4.525-4.09 5.53-4.778 5.258-3.817-.48-3.817-2.4-5.737 1.44-1.692-.503-1.165-.457-.48.366-.502.205-.252.024-.456-.023-.71-.204-.867-.07-.71.115-.593.3-.206.25-15.29 1.897-8.207 2.172-1.347.5-.983.687-.55.503-.41.57-.297.62-.092.32-.067.387-1.92 1.92-.686-1.028-1.188-2.264-1.19-3.383-2.674-15.314-.435-.756-.296-.708-.114-.366-.09-1.05v-2.88l.32-.618.34-.252.276-.068.045-.023h.253l.297-.047.16-.09h.09m32.55 3.86v-.41h.023l.022-.434-9.53 1.44 1.896 8.593 5.76-.937 1.875-4.8-.228-.16-.16-.16-.137-.206-.115-.48.046-.57.23-.48.09-.184.138-.503v-.206l.092-.503M272.823 240.275l.64.16.32.183.57.434.527.663.64.594.252.182.41.274.39.183.068.045.39.137h.09l.32.09.366-.022v-.045h.183l.227-.023 2.057 2.81.023.047.915 1.44.022.045.64 1.165.07.07.342.89.137.412.09.343.047.343-.023.548.39.8.365 1.006.434 2.628.046 1.555-.298 5.965 3.475-.525 4-.092 1.667.274 1.463.39 1.234.593 1.075.8.456.48-.07 1.486-.067.297-.024.046v.25l-.07.526-.32.8-.182.16h-.023v.07l-.09.09-.09.09-13.373.96-1.463.344-1.394.137h-3.36l-9.577 1.92-12.388 1.92-.64 1.052-.39.41-.433.412-.274.137-.252.16-.16.044h-.046l-.068.092-.274.16-.618.183h-.182l-.023.044-5.257 1.578-.366.09-.39.024-.364-.023-.343-.09-.71-.367-.387-.274-.823-.732-.297-.183-.595-.25-.663-.115h-.32l-.297-.48-.365-.435-.503-.434-1.19-.686-.707-.297-1.715-.526-.8-.388-1.325-.846-.96-.96-.206-.274-.39-.777-.136-.573 3.337-3.36h6.195l5.76-1.417h14.81l12.892-1.92-2.377-3.794-1.44-4.32-1.92-2.4-.114-1.074-.184-.457-.183-.39-.297-.342-.526-.388-.594-.206.046-.39v-.365l-.115-.39-.182-.32-.298-.365-.845-.708-.526-.32.046-.23v-.296l-.092-.434-.114-.23-.09-.273-.23-.48v-.024l-.07-.16-.364-.777-.07-.07-1.12-2.194-.182-.64v-.274l.07-.503.113-.23.366-.342.547-.275.71-.16 1.44-.068 6.216.96h.32M257.692 335.36l.937 2.88 10.033 1.417.48-10.034-5.737.502-5.714 1.418v3.817m23.862-13.143l.458.41.73.847.458.892.274.96-.09.25-.047.8.046.64.23.504.067.137.137.16.275.206.342.182v4.778l-.045.48v.182l-.07.618-.137.41-.023.16-.114.252-.092.275-.297.41-.32.413-.41.32-.207.137-.183.16-.274.617-.046.068-.205.572-1.783 3.383-.184.228-.87 1.19-.182.205-.16.25-.205.184-1.35 1.417-9.554 2.377-6.903 1.395-1.92.64-.754.366-.024.07-.07 2.24-.067.685v.252l-.047.41-.046.024v.367l-.09.343-.07.274-.09.274-.07.252-.182.342-.115.115-.068.114.045.32v.367l-.114.343-.183.365-.663.71-1.005.753-2.4-4.32-1.897-4.297-1.44-4.776-.96-4.754-.48-4.8-3.59-9.212-.205-1.12v-1.097l.206-1.004.252-.458 2.56-1.782.365-.23.412-.16.32-.182.663-.274.868-.206.55-.046 1.142.96 1.37.778 2.15.708 1.21.23 2.72.204 10.035-.502 2.88-1.898.23-.045.936-.206 1.69-.71 3.543 1.28 1.44.664 1.69 1.167"/></g><g fill="#1a1a1a"><path d="M495.36 325.93l.48.207.366.274.16.184.16.434.068.595.87.182h.09l.32.07h.07l.32.09.662.092h.137l.434.046 1.166.045.594.115.434.16.16.137.504-.457.48.937.343-.115.412.046.41.07.48.228 1.028.64 1.12 1.052.07.48 2.696 7.108.092.412.114.845-.023.023v.39l-.183.776-.41.663-.16.137-.436.503-.594.388-.183.16-.982.55-2.72-.16-1.942-.458-.71-.366-.25-.205-.206-.182-.183-.252-.114-.227-.07-.275v-.274l-.936-1.92-.41-.48-.23-.48-.023-.503.023-.227.137-.23-.365-.022-.32-.067-.64-.275-.55-.457-.526-.593-.068-.892-.16-.685-.16-.297-.16-.206-.206-.183-.183-.114.092-.275.02-.274-.02-.16v-.136l-.093-.25-.343-.573-.045-.067-.116-.183-.868-.96-.297-.503-.184-.48-.07-.23v-.227l-.662-.366-.503-.39-.34-.364-.16-.343-.07-.366.114-.32.252-.387.434-.32.87-.206 1.096-.114.594.068M519.428 329.588l.046-.754.07-.274-.984-.617-.754-.595-.572-.594-.183-.32-.273-.594-.023-.274.07-.595.09-.32.434-.593.298-.274 1.142-.343 2.332-.366h2.263l1.668.23 1.67.48 3.063 2.81 1.714 1.966 1.028 1.508.275.503.365.938.252.892-.297 1.76-.55 2.33-.182.573v.09l-.434 1.19-.39.73-.113.252-.16.183-.41.572-.32.297-.252.16-.045.068-.115.046-.57.344h-1.898l-.275-.25-.228-.14-.23-.067-.456-.046-.227-.067-.39-.16-.365-.32-.228-.39-.71-.182-.593-.205-.297-.16-.663-.525-.412-.48-.297-.503-.25-.64-1.555-5.897-.366-.046-.16-.07-.09-.044-.14-.115-.09-.114-.137-.227-.07-.366-.022-.39M546.81 242.115l.938-.023 7.657 5.714 2.766 2.057 1.6 1.67.778 1.302.343.8.23.868 2.262 2.47 1.212 1.736.57 1.165.115.32.022.16.046.182.09.64-.25.23-.183.228-.297.502-.183.48-.068.48-.96.915-1.44.983-4.275 1.942-.502-.41-.48-.207-.48-.045-.252.045-.206.115-.96.502-2.4-.96-.457-.32-.205-.182-.503-.755-.252-.64-5.257-3.36-1.44-.48-.09.023-.093.07H544l-.07.022-.113-.023h-.252l-.25-.07-.047-.022h-.206l-.457-.16-.045-.023h-.092l-.526-.16-.16-.022-1.668-.572-.23.023-.57.137h-.39v.023l-.387.023-.046-.024-.845-.023-.457-.09-.8-.184-.365-.024-.32.023-.298.09-.297.115-.525.502-.23.343-5.096-1.805-.16-.115.228-.434.252-.297.228-.16.275-.047v-.023h.183l.182-.068.32-.16.16-.32.07-.183.022-.23 2.857.503v-.023h.41l.184-.068v-.023h.183l.07-.047v-.046h.068l.137-.045.115-.07.137-.067.137-.206v-.093l.07-.16-.024-.16v-.137l-.023-.16-.023-.045v-.092l-.09-.114.044-.253.115-.16.114-.228.366-.504.274-.297.274-.39 3.2-3.314.207-.366.388-.594.23-.25.16-.253.296-.343.16-.114.504-.503.068-.16v-.09h.023l.046-.047.07-.274-.07-.32-.136-.32-.206-.366-.297-.32h-.936l-.503-.457-.09.136-.092.16-.068.07-.16.227q-.092.07-.206.115l-.16.137-.434.205-.983.23-.137.045h-.206l-.503.09-.776.024-.39-.092-.64-.046-.57.023-.48.114-.594.296-.297.297-.252.366-.113.456h-5.737l-4.8-2.857 7.657-.96 7.177-.458 1.463.16 1.646.617 1.188.64.938-.96 1.19.09.227.07.183.068.32.25v-.388l.046-.32.16-.548.297-.526.207-.206.48-.365.594-.252 1.12-.228M500.434 231.075l6.674 3.36 3.36 2.88.32 1.257.48 1.326.366.594.297.663.07.32.023.57-.137.504-.48.136-.915.457-.844.732-.755.96-.342.594 5.258.96.777-.138 1.44-.07 1.188.138.96.298.413.25h.548l.893.16.343.184.228.183.23.25.113.298.046.343h-3.84l-.16.297-.092.137-.09.16-.137.115-.115.137-.228.206-.183.068-.16.07-.206.067-.16.07-.204.022-.206.068-.412.023-.502-.137-.846-.115h-.71l-.593.114-.25.136-7.498 2.172-.94.388-.64.32-.227.16-.092.07-.067.067-.07.16-4.776 2.4h-2.857l-.73-.068-.62-.16-.844-.526-.206-.207-12.434 2.88-.526.87-.16.182-.388.594-.64.64-.16.09-.023.046-.48.434-.618-.023-1.44-.228-.755-.32-.525-.367-1.44.457-4.823 2.012-3.658 2.217-1.372 1.187-1.074 1.212-.777 1.302-.253.663-.8.48-.182.205-.206.137-.093.16-.16.32-.09.275v.137l.045.16.205.25.32.275-10.034 8.617-.32.022-.205.046-.48.23-.915.524-1.234.71-3.292 2.285-.686.273-.663.046-.32-.024-.275-.07-.595-.387-.548-.527-.526-.777-.457-.937-.367-1.327-.343-2.583v-2.514l.138-1.212.57-2.4.435.023 1.395-.068.434-.115.206-.07.25-.068.87-.32.8-.502.57-.458.207-.137.754-.754 6.01-7.11-.937-4.273-1.92-3.84.503-.48.48.366.274.136.298.092.617.022.685-.137.435.23 1.348.502.39.09h.067l.32.07.39.045h.182l.228.046 3.52 2.103.297.25.206.23.16.273.07.206.044.273 9.555-1.92 3.36-.96 3.337-1.44 1.28.137h.57l.114-.022h.412l.434-.092.07-.046.32-.09.16-.092.16-.092.136-.114.16-.07 6.217-1.44 1.85-.616 1.67-.32h.297l.25-1.463-.02-.137v-.068l-.07-.138-.07-.09-.09-.024 1.303-3.04.503-1.92.114-1.074-.07-.937-.227-.8-.183-.32-.25-.297-.23-.206.023-.23v-.182h.023l-.023-.365-.092-.23-.067-.16v-.022l-.23-.388-.09-.115-.71-.777-.16-.114-1.05-.755-.434-.39-.3-.32-.18-.32-.07-.296.07-.298.18-.274.3-.275.433-.205.663.16h.137l.48.045.274-.022.07-.022h.227l.16-.092h.092l.274-.068 1.074-1.715.275-.64.067-.297.023-.25-1.44-.458h5.257l5.257.457"/><path d="M504.96 308.743l-.55.068h-.227l-.046.024-.297.07-1.646.067-.434.116-.617.205-1.19.64-.16-.044-.067-.023h-.07l-.16-.046-.067-.023h-.07l-.41-.137-.436-.183-.57.183-.64.137-2.72.23-.664.136-.663.25-.457-.48-.983.48.663 1.258 2.377 3.11 1.737 1.828.115.182.16.206.18.137.253.07.548.023.664-.137 1.235.25.684.252 4.777-1.44 4.778-.96h5.258l4.297-1.44.228.275.276.205.274.092h.274l.297-.114.344-.206.686-.732-1.417-4.297-.87-.5-.342-.3-.25-.273-.206-.32-.137-.32-.09-.366-.024-.32-12.412 1.464-.113.092-.07.09h-.09v.024l-.16.16-.777.343m33.303-36.686l.754.87.343.547.023.115.137.41.023.526-.138.503-.09.09-.184.412-2.856 3.84-1.417 4.274-.114 3.108-.092.48v.183l-.296 2.515-.09.548-.093.16v.07l-.16.8-.456 1.28-.046.09-.09.32.182.16.205.206.252.48.09.228.07.55v.296l-.046.297-.32 1.03-.913 1.553.183.32.205.71.07.364-.138.71-.137.387-.435.8-.297.847-.137.686.07.617.137.274-4.87 8.252v.297l.047.137.07.09.113.093.32.205.388.07.55.022 1.462-.07 1.188.298 1.19.023 1.165-.273.594-.23.64-.296 4.8-.502.457-.457 1.075-.662 1.19-.365 1.325-.046 5.988.594 3.337 2.378 3.337 1.92 4.777 1.898 4.777 2.88.274.25.458.664.32.663.114.388.137.778v.366l-.183 1.28-.252.892-3.268 7.154-.115.114-.068.16-.115.137-.092.16-.23.184-.067.07-.296.227-.32.07-.07.045-.433.138-.273.045-.252.046-.526.023.41.114.344.16.228.184.206.25.046.23v.297l-.275.687-.503.48-.115.183-.137.137-.32.754-.023.298.023.275.114.274-1.03 2.88-.296.686-.297.502-.275.39-.274.228-.09.068-.116.024.16.343.115.388v.366l-.07.435-.41.87-.755.936-.685.64-.457.687-.343.823-.07.205v.595l.024.182.092.206-4.73 6.857-.092.252-1.143 1.554-.617.64-.663.55-.572.32-.16.137-.228.09-.572.298-.32.07-.068.067-.39.16.07.412-.046.228-.022.115v.137l-.366.868-.822.8-1.212.777-3.337 2.88-9.713 2.262-2.766.32-.502-.023-.205-.023h-.16l-.32-.07-.206-.09-7.154-7.155.045-.937-.114-.457-.183-.41-.296-.436-.343-.365-3.656-2.537-.457-.435-.594-.754-.137-.342-.48-.983h-3.338l-3.84-3.817-.342.046h-.298l-.25-.114-.184-.183-.183-.297-.16-.846v-.526h3.338l3.91 1.166.548.206.09.022 1.83.71.182.045.618.25h.342l1.783.32 1.693.618h10.034l5.53.55h.596l.114.022.274-.046.047-.045h.25l.16-.068h.07l.25-.046.16-.136.184-.114.07-.092.068-.046.07-.09.067-.047.023-.114.07-.068.022-.114.045-.068.023-.23v-.182h.046l1.417-1.44 1.92-5.257 2.858-4.776.732-1.69.16-.64.068-.527 1.44-2.88.023-1.097.48-2.972 1.647-4.594.708-1.37-1.188-1.647-.23-.274-.045-.343-.068-.297-.274-.435-.206-.182-.55-.16h-.296l.023-.572-.113-.434-.092-.183-.137-.16-.183-.137-.503-.183-.64-.09-1.668.18-.526.14-.388-.46-.983-.753-.846-.366-1.76-.297-5.553-.524-.914.365-.8.116-.64-.115-.298-.182-.205-.182-4.32.982-4.297 1.418h-3.817l-1.418.57-1.234.39-1.143.09-.524-.022-.458-.068-1.714.708-.64.16-.526.092h-3.36l-3.337.48h-3.336l-.228.022-.183.07-.777.022-.846-.114-1.326-.48-4.777.48-.366-.092-.387-.046-.366.046-.708.206-.687.48-.343.366-.526.365-.16.047h-.09v.046l-.047.045-.274.092-.617.023-.686-.137-7.13 4.274-3.384.16-1.554.388-.572.252-.434.297-.297.343-.116.32-.022.16.09.525.16.32.504.572.823.503h.96l.844.434 1.395.503h.182l.068.023.252.068h1.028l.252-.068.274-.023 6.217 5.257.457 4.32v4.297l-.434.48-.046.024-.068.16-.663.617-.596.412-.182.16-.87.55-.662-.618-.16-.114-.366-.183-.228-.07-.503.984-5.257-5.256-4.754-5.76-2.378-5.714-.73-.07-.618-.16-.846-.525-.205-.205-.115.137-.09.16-.207.274-.16.07-.16.114-.114.023-.253.16h-.114l-.366.09h-.388l-.115.024-1.28-.09-.343.297-.137.068-.115.07-.137.045-.09.09-1.464.39-2.127.09-2.766-.09-.502-.092-.87.023-.64.16-.205.16-.205.207-.16.48.022.617.275.777.868 1.487.915.32.685.366.526.457.457.32.274.068.206.046h.274l.48-.137.526 11.108-.114.595-.275.594-.39.594-.57.594-.71.595-1.805 1.21-5.737-.982-.137-1.325-.16-.55-.183-.502-1.348-.388-1.166-.686-1.007-1.006-.434-.617-2.744-5.896-2.857-3.337-1.92-3.84-2.378-2.857-2.88-2.4-.137-.252-.115-.365v-.23l.115-.09h.137l.274.022 1.737.32.732.092h.137l.16.023h.137l.16.023 1.188.114 1.714.343 2.33-.595 2.676-.274 1.142.07.983.183.87.32.73.48.32.297.046 1.188.113.617.092.252.09.183.138.16.572-.137 1.005-.092h.823l.663.093.297.137.343.09.366.024.823-.023.41-.09 1.395-.48.32.09.39.024.32-.023.365-.09.708-.39 1.394-1.073.686-.32.823-.252.41-.022.573.068.205.07 2.902-2.377 2.858-2.88 10.97-5.257 2.88-.458.572-.32.092-.114.09-.068.183-.23.09-.273.024-.275-.023-.32-.09-.32 3.108-2.56.708-.662.823-1.19.137-.456.046-.23-.046-.16-.388-.25-.435-.114-.457-.092h-1.097l-1.234.206-.664.25-1.35.298-1.164.023-.55-.113-.456-.16-.457-.23-.344-.296-5.234 7.178-1.03.138h-.868l-.754-.138-.594-.274-.48-.434-.183-.274-.274-.64-.138-.823v-.412l.365-1.302v-.182l.07-.503v-.183l.045-.48-.115-1.51-.09-.32v-.09l-.64-2.994-.092-2.263.228-1.19.23-.48v-.456l1.92-1.92-.344-.16-.298-.183-.252-.25-.183-.275-.183-.344-.182-.755v-.433l.137-.914-.024-.777-.07-.366-.136-.297-.206-.297-.182-.206v-9.554l-4.07-9.212-1.507-2.537-.618-.754-.274-.274-.206-.138-.502-1.92h1.92l.617.228.228.023.046-.023h.09l.16-.068.047-.046v-.023h.092l.16-.09 10.994 1.92 8.113-5.716 1.92-.982h.686l1.164.182.96.366.39.252.342.297.297.343 1.188-.138.39-.137.16-.114.16-.07.594.756.252.41.205.48.276 1.03.114 1.12-.48.434-.663.434-.206.092-.616.32-.274.068-.754.32-4.297.96-1.807.274-.09.115-.093.182-.114.114-.07.183-.25.16-.046.067-.297.23-.32.067-.09.046-.436.137-.274.046-.23.046-.547.022-.937-.138-1.578-.045-1.166.136-.48.137-.366.16-.25.23.16 4.73.64 3.59.64 1.713h.296l.526.114.228.114.137.092.137.206.07.182.022.252.25.548.344.39.16.068.23.045.204-.045.252-.07.868-.16.183-.113.206-.07.39-.25.64-.756.067-.137.23-.343.273-.548.25-.343.527-.503.594-.228.32-.023.343.022.366.114.846.526.16.068h.02l.16.07.16.022h.093l.09.022.116-.022.044-.023h.092l.114-.07.137-.068v-.07h.023l.16-.16.16-.296.137.32.183.32.206.274.594.48.39.183.89.32.526.114.89.343.367.252.228.25.23.298.114.297.046.366-.297.434-.114.092-.23.32-.434.342-.252.16h-.045l-.207.182-.572.275-.66.25-1.51.343-4.777.48-3.817.457-.457-.937-.458.137-.412.274-.343.32-.48.96-.205 1.326-.023.823h.32l.64.16.342.183.548.434.526.64.09.297.184.274.183.184.23.206.25.07.297.02.297-.02.366-.07.503 1.35.937 1.76.754 1.027 1.303 1.303.96.71 1.05.547 1.19.457.23-.228.227-.183.48-.297.503-.206.48-.046h2.4l.937.96 6.697-2.857 10.377-1.646.344-.09.732-.16.41.297.412.206.16.046.16.09h.07l.068.023.16.023v-.023h.068l.114-.023.023-.046.07-.045.068-.047.023-.114.07-.093.023-.183v-.068l.023-.046.388.297.48.297 1.257.457 1.624.253 1.99.114.09-.16.114-.16.183-.457.047-.297.114-.32.16-.754.093-1.327.023-.114.137-3.11-.32-.39-.206-.433-.046-.25v-.48l.093-.253.045-.297.206-.594.87-1.28.32-.32-.527-1.51-.57-1.14-.32-.46-.3-.32-.364-.25-.32-.137-1.623.868-.07.092-.136.023-2.537 1.096-.25.046-.64.25-1.807.458-3.59.32-.204.046-4.16-.366h-.183l-1.303-.206-2.126-.73v-3.338l4.32-.48 4.274-1.417 1.418.707 1.44.23.502-1.92.71.09.388.092 1.302.616 1.83 1.234.89.457.778.275.388.068h.183l.206.046.023.32.045.137.07.16.183.23.274.227.73.274.48.07.596.022.09-.366.115-.297.046-.297.07-.252.044-.228.092-.48-.137-.366-.023-.32.023-.617.09-.297.138-.274.413-.526-.297-2.217-.046-2.493.343-2.057.502-1.188.458-.64-1.463-3.795-3.59.64-1.553.48-.87.48-.18.275h-.276l-.524.16-.595.388-.684.572-.32.343-.275.41-.044.024-.206.342-.16.137-.07.044-.067.092-.252.25-.32.093-.182.044-.114.046h-.366l-.32-.046-.754.298-.708.022-.366-.114-.71-.41-.32-.298-1.347-1.555-.572-.525-.48-.32-.41-.937-.206-.846-.023-.824.024-.39.137-.34h4.32l.55-.024.25-.07.276-.022.937-.274.388-.206.16-.137.184-.114.137-.16.16-.138.138-.16.16-.137 5.258-.458 4.297-2.4.114-.228.25-.138.298-.092.412-.023.434.023 1.12.23.71.227.045.115.16.16.732.434 2.88 1.21 8.183 6.127.503.434"/></g></svg>